<svg id="svg" xmlns="http://www.w3.org/2000/svg" viewbox="20.100000381469727,11.270000457763672,488.97998046875,519.0299987792969" style="height:519.0299987792969"><path d="M 42.2,21.27 L 42.06,21.69 L 42.06,22.15 L 42.06,23.08 L 42.06,23.54 L 42.06,24.46 L 42.06,24.93 L 42.06,25.85 L 42.06,26.78 L 42.06,27.24 L 42.06,28.17 L 42.06,28.63 L 42.06,29.56 L 42.06,30.02 L 42.06,30.95 L 42.06,31.41 L 42.06,32.8 L 42.06,33.72 L 42.06,34.19 L 42.06,35.11 L 42.06,36.04 L 42.06,36.5 L 42.06,37.89 L 42.06,38.82 L 42.06,39.28 L 42.06,40.21 L 42.53,40.21 L 42.53,40.67 L 42.53,41.59 L 42.53,42.06 L 42.53,42.98 L 42.53,43.45 L 42.53,44.37 L 42.53,44.84 L 42.53,45.76 L 42.53,46.69 L 42.53,47.15 L 42.53,48.08 L 42.53,48.54 L 42.53,49.46 L 42.53,49.93 L 42.53,51.32 L 42.53,52.71 L 42.53,53.63 L 42.53,55.02 L 42.53,55.95 L 42.53,56.41 L 42.53,57.34 L 42.53,57.8 L 42.53,58.72 L 42.53,59.19 L 42.53,60.11 L 42.53,60.58 L 42.53,61.5 L 42.53,61.96 L 42.53,62.89 L 42.53,63.35 L 42.53,64.28 L 42.53,64.74 L 42.53,65.67 L 42.53,66.59 L 42.53,67.06 L 42.53,67.98 L 42.53,68.45 L 42.53,69.37 L 42.53,69.84 L 42.53,70.76 L 42.53,71.22 L 42.53,72.15 L 42.53,72.61 L 42.53,73.54 L 42.53,74 L 42.53,74.93 L 42.53,75.85 L 42.53,76.32 L 42.53,77.24 L 42.53,77.71 L 42.53,78.63 L 42.53,79.09 L 42.53,80.02 L 42.53,80.48 L 42.53,81.41 L 42.53,81.87 L 42.53,82.8 L 43.45,84.19 L 43.45,85.11 L 43.45,85.58 L 43.45,86.5 L 43.45,86.96 L 43.45,87.89 L 43.45,88.35 L 43.45,89.28 L 43.45,89.74 L 43.45,90.67 L 43.45,91.13 L 43.45,92.06 L 43.45,92.52 L 43.45,93.45 L 43.45,93.91 L 43.45,94.84 L 42.99,94.84 L 42.99,95.76 L 42.99,96.22 L 42.99,97.15" fill="none" stroke="#6190e8" stroke-width="2"></path><path d="M 73.68,31.92 L 73.55,32.34 L 73.55,33.26 L 73.55,33.72 L 73.55,34.65 L 73.55,35.11 L 73.55,36.04 L 73.55,36.96 L 73.55,37.43 L 73.55,38.35 L 73.55,38.82 L 74.47,39.74 L 74.93,39.74 L 74.93,40.21 L 75.86,40.21 L 76.32,40.21 L 76.32,41.13 L 77.25,41.13 L 77.25,41.59 L 77.71,41.59 L 78.64,42.52 L 79.56,42.52 L 79.56,42.98 L 80.03,42.98 L 80.95,42.98 L 81.42,42.98 L 81.42,43.91 L 82.34,43.91 L 82.81,44.37 L 83.73,44.37 L 83.73,45.3" fill="none" stroke="#6190e8" stroke-width="2"></path><path d="M 93.13,46.27 L 92.99,46.69 L 92.99,47.61 L 92.99,48.08 L 92.99,49 L 92.99,49.46 L 92.99,50.39 L 92.99,50.85 L 92.99,51.78" fill="none" stroke="#6190e8" stroke-width="2"></path><path d="M 119.98,31.92 L 119.84,32.34 L 119.84,33.26 L 119.84,33.72 L 119.84,34.65 L 119.84,35.11 L 119.84,36.04 L 119.84,36.96 L 119.84,37.43 L 119.84,38.35 L 119.84,38.82 L 119.84,39.74 L 119.84,40.21 L 119.84,41.13 L 119.84,41.59 L 119.84,42.52 L 119.84,42.98 L 120.77,43.91 L 120.77,44.37 L 120.77,45.3 L 120.77,45.76 L 120.77,46.69 L 120.77,47.61 L 120.77,48.08 L 120.77,49 L 120.77,49.46 L 120.77,50.39 L 120.77,50.85 L 120.77,51.78 L 120.77,52.24 L 120.77,53.17 L 120.77,53.63 L 121.23,53.63 L 122.16,53.63 L 123.55,53.63 L 124.47,53.63 L 124.93,53.63 L 125.86,53.63 L 126.32,53.63 L 127.25,53.63 L 127.71,53.63 L 128.64,53.63 L 129.1,53.63 L 130.03,53.63 L 130.49,53.63 L 131.42,53.63 L 131.88,53.63 L 132.81,53.63 L 132.81,52.71 L 133.27,52.71 L 134.19,52.71 L 134.19,52.24 L 135.12,52.24 L 134.66,52.24 L 135.12,52.24 L 135.12,51.32 L 135.12,50.85 L 135.12,49.93 L 135.12,49.46 L 135.12,48.54 L 135.12,48.08 L 135.12,47.15 L 135.12,46.22 L 135.12,45.76 L 134.66,45.76 L 134.66,44.84 L 134.66,44.37 L 133.73,44.37 L 133.73,43.45 L 133.27,43.45 L 132.34,43.45 L 131.88,43.45 L 130.95,42.98 L 130.49,42.98 L 129.56,42.98 L 129.1,42.98 L 128.18,42.98 L 127.71,42.98 L 126.79,42.98 L 126.32,42.98 L 125.4,42.98 L 124.93,42.98 L 124.01,42.98 L 123.08,42.98 L 123.08,43.91 L 122.62,43.91 L 121.69,43.91" fill="none" stroke="#6190e8" stroke-width="2"></path><path d="M 142.66,54.14 L 142.53,54.56 L 142.53,55.02 L 141.6,55.02 L 141.6,55.95 L 141.6,56.87 L 141.6,57.34 L 141.6,58.26 L 141.6,58.72 L 141.6,59.65 L 141.6,60.11 L 141.6,61.04 L 141.6,61.5 L 141.6,62.43 L 141.14,62.43 L 141.14,62.89 L 141.14,63.82 L 141.14,64.28 L 140.21,64.28" fill="none" stroke="#6190e8" stroke-width="2"></path><path d="M 74.61,77.29 L 74.47,78.17 L 75.4,78.17 L 75.4,78.63 L 75.86,79.56 L 75.86,80.02 L 76.79,80.95 L 76.79,81.41 L 77.25,81.41 L 77.25,82.34 L 78.18,82.8 L 78.18,83.72 L 78.64,83.72 L 78.64,84.19 L 78.64,85.11 L 79.56,85.11 L 79.56,85.58 L 79.56,86.5 L 80.03,86.5 L 80.03,87.43 L 80.95,87.89 L 81.42,87.89 L 81.42,88.82 L 82.34,89.28 L 82.34,90.21 L 82.81,90.21 L 82.81,90.67 L 83.73,90.67 L 84.66,90.67 L 84.66,91.59 L 85.12,91.59 L 86.05,91.59 L 86.51,91.59 L 87.43,91.59" fill="none" stroke="#6190e8" stroke-width="2"></path><path d="M 93.59,101.36 L 93.45,100.39 L 93.45,99.93 L 93.45,99 L 93.45,98.54 L 93.45,97.61 L 93.45,97.15 L 94.38,97.15 L 94.38,96.22 L 94.38,95.3 L 95.31,95.3 L 95.31,94.84 L 95.77,94.84 L 96.69,94.84 L 96.69,93.91 L 97.16,93.91 L 97.16,93.45 L 98.08,93.45 L 98.55,93.45 L 99.47,92.52 L 99.93,92.52 L 100.86,92.52 L 101.32,92.52 L 101.32,92.98 L 101.32,93.45 L 101.32,94.37 L 101.32,94.84 L 100.4,94.84 L 100.4,95.76 L 100.4,96.69 L 99.93,97.15 L 99.01,98.08 L 99.01,98.54 L 98.55,98.54 L 98.55,99.46 L 97.62,99.93 L 97.16,100.85 L 96.23,100.85 L 96.23,101.32 L 96.23,102.24 L 95.77,102.24 L 95.77,102.71 L 95.77,103.63 L 94.84,103.63 L 94.84,104.09 L 94.84,105.02 L 93.92,105.95 L 93.45,105.95 L 93.45,106.41 L 93.45,107.34 L 93.45,107.8 L 92.53,107.8 L 92.53,108.72 L 92.53,109.19 L 92.99,109.19 L 94.38,109.19 L 94.38,110.11 L 95.77,110.11 L 96.69,110.11 L 97.16,110.11 L 98.08,110.11 L 98.55,110.11 L 99.47,110.11 L 99.93,110.11 L 100.86,110.11 L 101.32,110.11 L 102.71,110.11 L 103.64,110.11 L 103.64,109.65 L 105.03,109.65 L 105.03,109.19 L 105.95,109.19 L 106.42,109.19 L 107.34,109.19 L 107.34,108.26 L 107.81,108.26" fill="none" stroke="#6190e8" stroke-width="2"></path><path d="M 126,75.9 L 125.86,76.78 L 125.86,77.24 L 125.86,78.17 L 125.86,78.63 L 124.93,78.63 L 124.93,79.56 L 124.93,80.02 L 124.93,80.95 L 124.93,81.41 L 124.47,81.41 L 124.47,82.34 L 124.47,82.8 L 124.47,83.72 L 124.47,84.19 L 124.47,85.11 L 124.47,85.58 L 124.47,86.5 L 124.47,87.43 L 124.47,87.89 L 124.47,88.82 L 124.47,89.28 L 124.47,90.21 L 124.47,90.67 L 124.47,91.59 L 124.47,92.06 L 124.47,92.98 L 124.47,93.45 L 124.47,94.37 L 124.47,94.84 L 124.47,95.76 L 125.4,96.69 L 125.4,97.15 L 125.86,98.08 L 126.79,98.08 L 127.25,98.54 L 127.25,99.46 L 127.25,99.93 L 128.18,99.93 L 129.1,99.93 L 129.1,100.85 L 129.56,100.85 L 130.49,101.32 L 130.95,101.32 L 131.88,101.32 L 132.34,101.32 L 133.27,101.32 L 133.73,101.32 L 134.66,101.32 L 135.12,101.32 L 136.05,101.32 L 136.51,101.32 L 137.43,101.32 L 137.9,102.24 L 138.82,102.24 L 139.75,102.24 L 140.21,102.24 L 141.14,102.24 L 141.14,101.78 L 141.6,101.78 L 142.53,101.78 L 142.53,101.32 L 142.99,101.32 L 142.99,100.39 L 143.92,100.39 L 144.38,100.39 L 144.38,99.93 L 144.38,99 L 145.31,99 L 145.31,98.54 L 145.31,97.61 L 145.31,97.15 L 145.31,96.22 L 145.77,96.22 L 145.77,95.3 L 145.77,94.84 L 145.77,93.91 L 145.77,93.45 L 145.77,92.52 L 144.84,92.06 L 144.38,92.06 L 144.38,91.13 L 143.45,91.13 L 142.99,91.13 L 142.99,90.67 L 142.06,90.67 L 141.6,90.67 L 140.68,90.67 L 140.21,89.74 L 139.29,89.74 L 138.36,89.74 L 137.9,89.74 L 136.97,89.74 L 136.51,89.74 L 135.12,89.74 L 134.19,89.74 L 133.73,89.74 L 132.81,90.21 L 132.34,90.21 L 131.42,90.21 L 130.95,90.21 L 130.95,90.67 L 130.03,90.67 L 129.56,90.67 L 129.56,91.59 L 128.64,91.59 L 127.71,91.59 L 127.71,92.06 L 127.25,92.06 L 126.32,92.06 L 126.32,92.98" fill="none" stroke="#6190e8" stroke-width="2"></path><path d="M 152.85,105.06 L 153.18,105.02 L 153.18,104.56 L 153.18,104.09 L 153.18,103.17 L 153.18,102.71 L 153.18,101.78 L 153.64,101.78 L 154.56,101.78 L 155.03,101.78 L 155.03,102.24 L 155.95,102.24 L 155.95,102.71 L 156.42,102.71 L 157.34,102.71 L 157.81,102.71 L 158.73,102.71 L 159.66,102.71 L 160.12,102.71 L 160.12,103.63 L 160.12,104.09 L 160.12,105.02 L 159.19,105.02 L 159.19,105.95 L 158.27,105.95 L 158.27,106.41 L 157.81,107.34 L 156.88,107.34 L 156.88,107.8 L 156.42,107.8 L 156.42,108.72 L 155.49,109.19 L 155.03,109.19 L 155.03,110.11 L 154.1,110.58 L 154.1,111.5 L 153.64,111.5 L 152.71,111.5 L 152.71,111.96 L 152.71,112.89 L 152.25,112.89 L 153.18,112.89 L 153.64,112.89 L 153.64,112.43 L 154.56,112.43 L 155.03,112.43 L 155.95,112.43 L 156.42,112.43 L 156.42,111.96 L 157.81,111.96 L 158.73,111.96 L 159.66,111.96 L 159.66,111.04 L 160.12,111.04 L 160.12,110.58 L 161.05,110.58" fill="none" stroke="#6190e8" stroke-width="2"></path><path d="M 169.52,38.86 L 169.38,39.74 L 169.38,40.21 L 170.31,40.21 L 170.31,41.13 L 170.31,41.59 L 170.31,42.52 L 170.77,42.98 L 170.77,43.91 L 170.77,45.3 L 170.77,45.76 L 170.77,47.61 L 170.77,48.08 L 170.77,49.46 L 171.69,50.39 L 171.69,50.85 L 171.69,51.78 L 171.69,53.17 L 171.69,53.63 L 171.69,54.56 L 171.69,55.02 L 171.69,55.95 L 172.16,56.87 L 172.16,57.34 L 172.16,58.72 L 172.16,59.65 L 172.16,60.11 L 173.08,61.5 L 173.08,62.89 L 173.08,63.82 L 173.08,65.21 L 173.08,66.59 L 173.08,67.52 L 173.08,68.91 L 173.08,69.37 L 173.08,70.76 L 173.08,72.15 L 173.08,73.08 L 173.55,74.46 L 173.55,74.93 L 173.55,75.85 L 173.55,76.78 L 173.55,78.17 L 173.55,78.63 L 173.55,79.56 L 173.55,80.02 L 173.55,80.95 L 173.55,81.41 L 173.55,82.34 L 173.55,82.8 L 173.55,83.72 L 173.55,84.19 L 173.55,85.11 L 173.55,85.58 L 173.55,86.5 L 173.55,87.43 L 173.55,87.89 L 173.55,88.82 L 173.55,89.28 L 173.55,90.21 L 173.55,90.67 L 173.55,91.59 L 173.55,92.06 L 173.55,92.98 L 173.55,93.45 L 173.55,94.37 L 173.55,94.84 L 173.55,95.76 L 172.62,95.76 L 172.62,96.69 L 172.62,97.15 L 172.62,98.08 L 172.62,98.54 L 172.62,99.46 L 172.62,99.93 L 172.62,100.85 L 172.62,101.32 L 172.62,102.24 L 172.62,102.71 L 172.62,103.63 L 172.62,104.09 L 172.62,105.02 L 172.62,105.95 L 172.62,106.41 L 173.08,106.41 L 173.08,107.34 L 173.08,107.8 L 173.08,108.72 L 173.08,109.19 L 173.08,110.11" fill="none" stroke="#6190e8" stroke-width="2"></path><path d="M 101.46,55.06 L 101.79,55.02 L 101.79,55.48 L 102.25,55.48 L 102.25,55.95 L 103.18,55.95 L 103.18,56.87 L 104.1,56.87 L 104.1,57.34 L 104.56,57.34 L 104.56,58.26 L 105.49,58.26 L 105.49,58.72 L 105.95,58.72 L 105.95,59.65 L 106.88,60.11 L 106.88,61.04 L 107.34,61.5 L 108.27,61.5 L 108.73,61.5 L 108.73,62.43 L 108.73,62.89 L 108.73,63.82 L 109.66,63.82 L 109.66,64.74 L 110.12,64.74 L 110.12,65.21 L 111.05,66.13 L 111.51,66.13 L 111.51,66.59 L 111.51,67.52 L 112.43,67.52 L 112.43,67.98 L 113.36,67.98 L 113.82,67.98 L 113.82,68.91 L 114.75,68.91 L 115.21,69.37 L 115.21,70.3 L 116.14,70.3 L 116.6,70.3 L 116.6,70.76 L 116.6,71.69 L 117.53,71.69 L 117.99,72.15 L 118.92,72.15 L 118.92,73.08 L 119.38,73.08 L 119.38,74 L 119.38,74.46 L 119.38,75.39 L 120.31,75.39 L 120.31,75.85 L 120.77,75.85 L 120.77,76.78 L 120.77,77.24 L 121.69,77.24 L 121.69,78.17 L 121.69,78.63 L 122.16,78.63 L 122.16,79.56 L 122.16,80.02 L 123.08,80.95 L 123.08,81.41 L 123.08,82.34 L 122.62,82.34 L 123.08,82.34 L 123.08,83.26 L 123.08,83.72 L 122.62,83.72 L 122.62,84.65 L 122.16,84.65 L 121.23,84.65 L 120.77,85.11 L 119.84,85.11 L 119.38,85.11 L 119.38,86.04 L 118.45,86.04 L 118.45,86.5 L 117.99,86.5 L 117.06,86.5 L 116.6,87.43 L 115.68,87.43 L 115.21,87.43 L 114.29,87.43 L 113.82,87.43 L 112.9,87.43 L 111.97,87.43 L 111.51,87.43 L 110.58,87.43 L 110.12,87.43 L 109.19,87.43 L 108.73,87.43 L 107.81,86.96 L 107.34,86.96 L 106.42,86.96 L 106.42,86.5 L 105.95,86.5 L 105.03,86.5 L 104.56,86.5 L 104.56,85.58 L 102.71,85.58 L 102.25,85.58 L 101.32,85.58 L 100.86,85.58 L 99.93,85.58 L 99.47,85.58 L 98.55,85.58 L 98.08,85.58 L 97.16,85.58 L 96.69,85.58 L 95.77,85.58 L 95.31,85.58 L 94.38,85.58 L 93.45,85.58 L 92.99,85.58 L 92.06,85.58 L 92.06,85.11 L 92.06,84.19 L 92.06,83.72 L 92.53,83.72 L 92.53,82.8 L 92.53,81.87 L 92.53,81.41 L 92.99,81.41 L 92.99,80.48 L 92.99,80.02 L 93.92,80.02 L 93.92,79.09 L 93.92,78.63 L 94.84,78.63 L 94.84,77.71 L 94.84,77.24 L 95.31,77.24 L 95.31,76.32 L 96.23,76.32 L 96.23,75.85 L 96.69,75.85 L 96.69,74.93 L 97.62,74.93 L 97.62,74.46 L 98.08,74.46 L 98.08,73.54 L 99.01,73.54 L 99.47,72.61 L 100.4,72.61 L 100.4,72.15 L 100.86,72.15 L 101.79,72.15 L 101.79,71.22 L 102.25,71.22 L 102.25,70.76 L 103.18,70.76 L 104.1,70.76 L 104.56,70.76 L 104.56,69.84 L 105.49,69.37 L 105.95,69.37 L 105.95,68.45 L 106.88,68.45 L 106.88,67.98 L 107.34,67.98 L 107.34,67.06 L 108.27,67.06 L 108.27,66.59 L 108.73,66.59 L 109.66,65.67 L 110.12,65.67 L 110.12,65.21 L 111.05,65.21 L 111.05,64.28 L 111.51,64.28 L 112.43,64.28 L 112.43,63.35 L 113.36,63.35 L 113.36,62.89 L 113.82,62.89 L 113.82,61.96 L 114.75,61.96 L 114.75,61.5 L 115.21,61.5 L 115.21,60.58 L 116.14,60.58 L 116.6,60.11 L 116.6,59.19 L 117.53,59.19 L 117.53,58.72 L 117.99,58.72 L 117.99,57.8 L 118.92,57.8 L 118.92,57.34" fill="none" stroke="#6190e8" stroke-width="2"></path><path d="M 53.78,142.56 L 53.78,143.03 L 53.64,143.45 L 53.64,144.37 L 53.64,145.3 L 54.1,145.3 L 54.1,145.76 L 54.1,146.69 L 54.56,146.69 L 54.56,147.15 L 54.56,148.08 L 55.49,148.08 L 55.49,148.54 L 55.49,149.46 L 55.95,149.46 L 55.95,149.93 L 56.88,149.93 L 57.34,150.85 L 57.34,151.32 L 58.27,151.32 L 58.27,152.24 L 58.73,152.24 L 59.66,152.24 L 59.66,152.71 L 59.66,153.63 L 60.12,153.63 L 60.12,154.56 L 61.05,154.56 L 61.97,154.56 L 61.97,155.02 L 62.43,155.02 L 62.43,155.95 L 63.36,155.95 L 63.82,155.95 L 64.75,155.95 L 64.75,156.41 L 65.21,156.41 L 65.21,157.34 L 66.14,157.34 L 66.14,157.8" fill="none" stroke="#6190e8" stroke-width="2"></path><path d="M 60.26,152.75 L 59.19,153.63 L 59.19,154.56 L 59.19,155.02 L 59.19,155.95 L 58.73,156.41 L 58.73,157.34 L 57.81,157.34 L 57.34,157.34 L 57.34,157.8 L 56.42,157.8 L 56.42,158.72 L 55.95,158.72 L 55.95,159.19 L 55.03,159.19 L 54.56,159.19 L 54.56,160.11 L 53.64,160.11 L 53.18,160.11 L 52.25,160.11 L 52.25,160.58 L 51.32,160.58 L 50.86,160.58 L 49.93,160.58 L 49.47,160.58 L 48.55,160.58 L 48.55,159.65 L 48.08,159.19 L 48.08,158.26 L 47.16,157.8 L 47.16,156.41 L 47.16,155.48 L 46.69,155.02 L 46.69,154.09 L 46.69,153.17 L 46.69,152.71 L 46.69,151.78 L 46.69,151.32 L 46.69,150.39 L 47.62,149.93 L 47.62,149 L 47.62,148.54 L 48.08,148.54 L 49.01,148.54 L 49.47,148.54 L 50.4,148.54 L 50.86,148.54 L 51.79,148.54 L 52.71,148.54 L 53.18,148.54 L 54.1,147.61" fill="none" stroke="#6190e8" stroke-width="2"></path><path d="M 74.61,160.16 L 74.47,160.58 L 74.47,161.5 L 74.47,161.96 L 74.47,162.89 L 74.47,163.35 L 74.47,164.28 L 74.47,165.21 L 74.47,165.67 L 74.47,166.59 L 74.47,167.06 L 75.4,168.45 L 75.4,169.37 L 75.4,169.84 L 75.4,170.76 L 75.4,171.22 L 75.4,172.15 L 75.4,172.61" fill="none" stroke="#6190e8" stroke-width="2"></path><path d="M 87.11,133.77 L 86.97,134.65 L 86.97,135.11 L 86.97,136.04 L 86.97,136.5 L 86.51,137.43 L 86.51,137.89 L 86.51,138.82 L 86.51,139.28 L 86.51,140.21 L 86.51,141.59 L 86.51,142.06 L 86.51,143.45 L 86.51,144.37 L 86.51,145.76 L 86.51,147.15 L 86.51,148.54 L 86.51,149.46 L 86.51,150.85 L 86.51,151.32 L 86.51,152.24 L 86.51,152.71 L 86.51,153.63 L 86.51,154.56 L 86.51,155.02 L 86.51,155.95 L 86.51,156.41 L 86.51,157.34 L 86.51,157.8 L 86.51,158.72 L 86.51,159.19 L 86.51,160.11 L 86.51,160.58 L 86.51,161.5 L 86.51,161.96 L 86.51,162.89 L 86.51,163.35 L 86.51,164.28 L 87.43,164.28 L 87.9,164.28 L 88.82,164.28 L 89.29,164.28 L 90.21,164.28 L 91.14,164.28 L 91.6,164.28 L 92.53,164.28 L 92.99,164.28 L 92.99,163.82 L 93.92,163.82 L 93.92,163.35 L 94.38,163.35 L 94.38,162.43 L 95.31,162.43 L 95.31,161.96 L 95.31,161.04 L 95.31,160.58 L 95.31,159.65 L 95.31,159.19 L 95.31,158.26 L 95.77,158.26 L 95.77,157.8 L 96.69,157.8 L 96.69,156.87 L 96.69,156.41 L 96.69,155.48 L 96.23,155.48 L 96.23,155.02 L 96.23,154.09 L 96.23,153.17 L 95.77,153.17 L 95.77,152.71 L 94.84,152.71 L 94.38,152.71 L 93.45,152.71 L 92.99,152.71 L 92.06,152.71 L 91.6,152.71 L 90.68,152.71 L 89.75,152.71 L 89.75,153.63 L 89.29,153.63" fill="none" stroke="#6190e8" stroke-width="2"></path><path d="M 100.54,169.88 L 100.4,168.91 L 100.86,168.91 L 100.86,168.45 L 101.79,168.45 L 102.25,168.45 L 103.18,168.45 L 103.64,167.52 L 104.56,167.52 L 105.03,167.52 L 105.03,167.06 L 105.03,167.98 L 105.03,168.45 L 105.03,169.37 L 105.03,169.84 L 105.03,170.76 L 105.03,171.22 L 105.03,172.15 L 105.03,172.61 L 105.03,173.54 L 105.03,174.46 L 105.03,174.93 L 105.03,175.85 L 104.1,175.85 L 103.64,176.32 L 103.64,177.24 L 102.71,177.71 L 102.71,178.63 L 102.25,178.63 L 102.25,179.09 L 101.32,179.09 L 101.32,180.02 L 100.4,180.02 L 100.4,180.48 L 100.86,180.48 L 101.79,180.48 L 102.25,180.48 L 103.18,180.48 L 103.64,180.48 L 104.56,180.48 L 105.03,180.48 L 105.95,180.48 L 106.42,180.48 L 107.34,180.48 L 107.34,179.56 L 107.81,179.56" fill="none" stroke="#6190e8" stroke-width="2"></path><path d="M 119.52,163.86 L 120.31,163.82 L 120.77,163.82 L 120.77,164.28 L 121.69,164.28 L 122.16,164.28 L 123.08,164.28 L 123.55,164.28 L 124.47,165.21 L 124.93,165.21 L 125.86,165.21 L 126.32,165.21 L 127.25,165.21 L 128.18,165.21 L 128.64,165.21 L 129.56,165.21 L 130.95,165.21 L 132.34,165.21 L 132.81,165.67 L 133.73,165.67 L 134.19,165.67 L 135.12,165.67 L 135.58,165.67 L 136.51,165.67 L 137.43,165.67" fill="none" stroke="#6190e8" stroke-width="2"></path><path d="M 157.94,155.53 L 157.81,155.95 L 157.81,156.41 L 157.81,157.34 L 157.81,157.8 L 157.81,158.72 L 157.81,159.19 L 157.81,160.11 L 157.81,160.58 L 157.81,161.5 L 157.81,161.96 L 157.81,162.89 L 158.73,163.35 L 158.73,164.28 L 158.73,165.21 L 158.73,165.67 L 159.19,165.67 L 159.19,166.59 L 159.19,167.06 L 160.12,167.06 L 160.58,167.06 L 160.58,167.98 L 161.51,167.98 L 161.97,167.98 L 162.9,167.98 L 162.9,168.45 L 163.36,168.45 L 164.29,168.45 L 164.75,168.45 L 165.68,168.45 L 166.6,168.45 L 167.06,168.45 L 167.06,169.37 L 167.99,169.37 L 168.45,169.37 L 168.45,169.84" fill="none" stroke="#6190e8" stroke-width="2"></path><path d="M 162.11,168.03 L 161.97,168.45 L 161.05,168.45 L 161.05,169.37 L 160.58,169.37 L 160.58,169.84 L 159.66,169.84 L 159.19,169.84 L 158.27,169.84 L 157.81,169.84 L 156.88,169.84 L 155.95,169.84 L 155.49,169.84 L 154.56,169.84 L 154.56,168.91 L 154.1,168.91 L 154.1,168.45 L 153.18,168.45 L 152.71,168.45 L 152.71,167.52 L 152.71,167.06 L 152.71,166.13 L 152.71,165.67 L 152.71,164.74 L 152.71,163.82 L 152.71,163.35 L 152.71,162.43 L 152.71,161.96 L 152.71,161.04 L 152.71,160.58 L 152.71,159.65 L 152.71,159.19 L 152.71,158.26 L 152.71,157.8 L 152.71,156.87 L 152.71,156.41 L 153.64,155.48 L 153.64,155.02 L 153.64,154.09 L 154.1,154.09 L 155.03,154.09 L 155.49,154.09 L 156.42,153.17 L 157.34,153.17 L 157.81,153.17 L 158.73,153.17 L 159.19,153.17" fill="none" stroke="#6190e8" stroke-width="2"></path><path d="M 174.61,177.29 L 174.93,177.24 L 174.93,176.78 L 174.93,176.32 L 175.4,176.32 L 175.4,175.39 L 176.32,174.93 L 177.25,174.93 L 177.71,174.93 L 177.71,174 L 178.64,174 L 178.64,173.08 L 179.1,173.08 L 180.03,173.08 L 180.49,173.08 L 181.42,173.08 L 181.42,172.61 L 181.42,173.54 L 181.42,174.46 L 181.42,174.93 L 181.42,175.85 L 181.42,176.32 L 181.42,177.24 L 181.42,177.71 L 181.42,178.63 L 180.95,179.09 L 180.95,180.02 L 180.49,180.02 L 180.49,180.48 L 179.56,180.48 L 179.1,180.48 L 179.1,181.41 L 178.18,181.41 L 177.71,181.87 L 176.79,182.8 L 175.86,182.8 L 175.86,183.26 L 175.4,183.26 L 175.4,184.19 L 174.47,184.19 L 174.01,184.19 L 174.01,185.11 L 173.08,185.11 L 173.08,185.58 L 172.62,185.58 L 172.62,186.5 L 172.62,186.96 L 173.55,186.96 L 174.01,186.96 L 174.93,186.96 L 175.4,186.96 L 176.32,186.96 L 177.25,186.96 L 177.71,186.96 L 178.64,186.96 L 180.03,186.96 L 180.49,186.96 L 181.42,186.96 L 181.88,186.96 L 182.81,186.96 L 183.27,186.96 L 184.19,186.96 L 184.66,186.96 L 185.58,186.96 L 186.51,186.96 L 186.97,186.96 L 187.9,186.96 L 188.36,186.04 L 189.29,186.04 L 189.75,185.58 L 189.75,184.65 L 190.68,184.65" fill="none" stroke="#6190e8" stroke-width="2"></path><path d="M 188.5,143.95 L 188.36,144.37 L 188.36,145.3 L 188.36,145.76 L 188.36,146.69 L 188.36,147.15 L 188.36,148.08 L 188.36,148.54 L 188.36,149.46 L 188.36,149.93 L 188.36,150.85 L 188.36,151.32 L 188.36,152.24 L 188.36,152.71 L 188.36,153.63 L 188.36,154.56 L 188.36,155.02 L 188.36,155.95 L 188.36,156.41 L 188.36,157.8 L 188.36,158.72 L 189.29,159.19 L 189.29,160.11 L 189.29,160.58 L 189.29,161.96 L 189.29,162.89 L 189.29,163.35 L 189.29,164.28 L 189.29,165.21 L 189.29,165.67 L 189.29,166.59 L 189.29,167.06 L 189.29,167.98 L 189.29,168.45 L 189.29,169.37 L 189.29,169.84 L 189.75,170.76 L 189.75,171.22 L 189.75,172.15 L 189.75,172.61 L 190.68,173.54 L 190.68,174.46 L 190.68,174.93 L 191.14,174.93 L 192.06,174.93 L 192.53,174.93 L 193.45,174.93 L 193.92,174.93 L 194.84,174.93 L 195.31,174.93 L 196.23,174.93 L 197.16,174.93 L 197.62,174.93 L 198.55,174.93 L 199.01,174.93 L 199.01,174 L 199.93,174 L 199.93,173.08 L 199.93,172.61 L 200.4,172.61 L 200.4,171.69 L 200.4,171.22 L 200.4,170.3 L 200.4,169.84 L 200.4,168.91 L 200.4,168.45 L 200.4,167.52 L 200.4,167.06 L 200.4,166.13 L 200.4,165.67 L 200.4,164.74 L 200.4,163.82 L 199.47,163.82 L 199.47,163.35 L 199.01,163.35 L 199.01,162.43 L 198.08,162.43 L 197.62,162.43 L 196.69,162.43 L 195.77,162.43 L 195.31,162.43 L 194.38,162.43 L 193.92,162.43 L 192.99,162.43 L 192.99,162.89 L 192.99,163.35 L 192.53,163.35 L 192.53,164.28 L 191.6,164.28 L 191.6,165.21" fill="none" stroke="#6190e8" stroke-width="2"></path><path d="M 209.79,178.21 L 209.66,178.63 L 209.66,179.09 L 209.66,180.02 L 209.66,180.48 L 209.66,181.41 L 208.73,181.41 L 208.73,181.87 L 208.73,182.8 L 208.73,183.26 L 208.73,184.19 L 208.73,185.11 L 208.73,185.58 L 208.73,186.5 L 208.27,186.5 L 208.27,186.96" fill="none" stroke="#6190e8" stroke-width="2"></path><path d="M 218.13,169.88 L 218.45,169.84 L 218.45,170.76 L 218.92,170.76 L 219.84,170.76 L 220.31,170.76 L 220.31,171.22 L 221.23,171.22 L 221.69,171.22 L 222.62,171.22 L 223.08,171.22 L 224.01,171.22 L 224.47,171.22 L 225.4,171.22 L 226.79,171.22 L 227.71,171.22" fill="none" stroke="#6190e8" stroke-width="2"></path><path d="M 213.04,162.47 L 213.36,162.89 L 213.82,162.89 L 213.82,163.35 L 214.75,163.35 L 214.75,164.28 L 215.21,164.28 L 216.14,164.28 L 216.14,165.21 L 217.06,165.21 L 217.53,165.21 L 218.45,165.67 L 218.92,165.67 L 219.84,165.67 L 221.23,166.59 L 221.69,166.59 L 222.62,166.59 L 223.08,166.59 L 224.47,166.59 L 225.4,166.59 L 226.79,166.59 L 227.71,166.59 L 228.18,166.59 L 229.1,166.59 L 229.56,166.59" fill="none" stroke="#6190e8" stroke-width="2"></path><path d="M 241.74,145.8 L 241.6,148.08 L 241.6,148.54 L 241.6,149.46 L 241.6,149.93 L 241.6,150.85 L 240.68,152.71 L 240.68,153.63 L 240.68,154.56 L 240.68,155.95 L 240.68,156.41 L 240.68,157.34 L 240.68,158.72 L 240.21,159.19 L 240.21,160.11 L 240.21,160.58 L 240.21,161.5 L 240.21,161.96 L 240.21,162.89 L 240.21,163.35 L 240.21,164.28 L 240.21,165.21 L 240.21,165.67 L 240.21,166.59 L 240.21,167.06 L 240.21,167.98 L 240.21,168.45 L 240.21,169.37 L 240.21,169.84 L 240.21,170.76 L 240.21,171.22 L 240.21,172.15 L 240.21,172.61 L 240.21,173.54 L 240.21,174.46 L 240.21,174.93 L 240.21,175.85 L 241.14,175.85 L 241.6,175.85 L 242.53,175.85 L 242.99,175.85 L 243.92,175.85 L 244.38,175.85 L 245.31,175.85 L 246.23,175.85 L 246.69,175.85 L 247.62,175.85 L 248.08,175.85 L 249.01,175.85 L 249.47,175.85 L 250.4,175.85 L 250.86,175.85 L 251.79,175.85 L 253.18,175.85 L 253.64,175.85 L 254.56,175.39 L 255.49,175.39 L 255.49,174.93 L 255.95,174.93 L 255.95,174 L 256.88,174 L 256.88,173.08 L 257.34,173.08 L 258.27,173.08 L 258.27,172.61 L 258.73,172.61 L 258.73,171.69 L 259.66,171.69 L 260.12,171.22 L 261.05,170.3 L 261.51,169.84 L 261.51,168.91 L 261.51,168.45 L 262.43,167.52 L 262.43,167.06 L 262.43,166.13 L 262.9,166.13 L 262.9,165.67 L 262.9,164.74 L 262.9,163.82 L 262.9,163.35 L 263.82,162.43 L 263.82,161.96 L 263.82,161.04 L 263.82,160.58 L 263.82,159.65 L 263.82,159.19 L 263.82,158.26 L 263.82,157.8 L 264.29,157.8 L 264.29,156.87 L 264.29,156.41 L 264.29,155.48 L 264.29,155.02 L 264.29,154.09 L 263.36,153.17 L 263.36,152.71 L 262.9,152.71 L 261.97,151.78 L 261.51,151.32 L 260.58,151.32 L 260.58,150.39 L 260.12,150.39 L 259.19,150.39 L 259.19,149.93 L 258.73,149.93 L 257.81,149.93 L 257.34,149.93 L 256.42,149 L 255.95,149 L 255.95,148.54 L 255.03,148.54 L 254.1,148.54 L 253.64,147.61 L 252.71,147.61 L 252.25,147.61 L 251.32,147.61 L 250.86,147.61 L 249.93,147.61 L 249.47,147.61 L 248.08,147.61 L 247.16,147.61 L 246.69,148.08 L 245.77,148.08 L 244.84,148.08 L 244.38,148.08 L 244.38,148.54 L 243.45,148.54" fill="none" stroke="#6190e8" stroke-width="2"></path>  <path d="M 33.76,230.4 L 33.76,231.32 L 33.81,231.87 L 33.81,232.8 L 33.81,234.19 L 33.81,235.58 L 33.81,236.5 L 33.81,238.35 L 33.81,239.28 L 33.81,241.13 L 33.81,242.06 L 33.81,244.37 L 33.81,246.22 L 33.81,247.61 L 33.81,249 L 33.81,250.39 L 33.81,253.63 L 34.27,255.48 L 34.27,257.8 L 34.27,260.11 L 34.27,262.89 L 34.27,265.21 L 33.81,268.91 L 33.34,273.08 L 32.42,276.78 L 31.96,280.48 L 31.96,285.11 L 31.96,288.35 L 31.03,292.06 L 31.03,295.76 L 31.03,298.54 L 31.03,302.24 L 31.03,305.95 L 30.1,308.26 L 30.1,311.04 L 30.57,313.35 L 30.57,314.74 L 30.57,316.13 L 30.57,316.59 L 30.57,317.52" fill="none" stroke="#6190e8" stroke-width="2"></path><path d="M 171.72,233.17 L 171.77,234.19 L 171.77,234.65 L 171.77,236.04 L 171.77,237.43 L 171.77,238.82 L 171.77,242.06 L 171.77,244.84 L 171.77,246.22 L 170.84,250.39 L 170.84,253.63 L 170.84,256.41 L 170.84,259.19 L 170.38,265.21 L 170.38,267.98 L 170.38,272.61 L 169.46,276.32 L 168.53,280.48 L 168.53,285.11 L 168.53,288.82 L 168.53,293.91 L 168.53,297.61 L 168.53,300.85 L 168.53,304.56 L 168.07,308.26 L 168.07,311.04 L 167.14,313.35 L 167.14,316.13 L 166.68,318.45 L 166.68,319.84 L 166.68,321.22 L 166.68,322.61 L 165.75,323.08 L 165.75,324 L 165.75,324.46 L 165.75,325.39 L 165.75,325.85 L 165.75,326.78 L 165.29,327.24 L 165.29,328.17 L 165.29,329.09 L 165.29,329.56 L 165.29,330.48 L 165.29,330.95 L 165.29,331.87 L 165.29,332.34 L 165.29,333.26" fill="none" stroke="#6190e8" stroke-width="2"></path><path d="M 119.4,246.14" fill="none" stroke="#6190e8" stroke-width="2"></path><path d="M 36.07,226.23 L 36.12,227.24 L 35.2,227.71 L 35.2,228.63 L 35.2,229.09 L 35.2,230.02 L 35.2,230.95 L 34.73,231.41 L 34.73,232.34 L 34.73,233.72 L 33.81,234.19 L 33.81,235.11 L 33.81,236.96 L 33.34,237.89 L 33.34,239.28 L 33.34,240.21 L 33.34,241.59 L 32.42,242.98 L 32.42,243.45 L 32.42,244.37 L 32.42,244.84 L 32.42,245.76 L 32.42,246.22 L 32.42,247.61 L 32.42,248.54 L 32.42,249 L 32.42,249.93 L 32.42,250.85 L 32.42,251.32 L 32.42,252.71 L 32.42,253.63 L 32.42,254.09 L 32.42,255.02 L 32.88,256.41 L 32.88,256.87 L 32.88,257.8 L 32.88,258.26 L 32.88,259.19 L 33.34,260.11 L 33.34,261.5 L 33.34,261.96 L 33.34,263.35 L 33.34,264.28 L 33.34,264.74 L 33.34,266.13 L 33.34,267.06 L 33.34,267.52 L 33.34,268.45 L 33.34,268.91 L 33.34,269.84 L 33.34,270.76 L 33.34,271.22 L 33.34,272.15 L 33.34,272.61 L 33.34,273.54 L 33.34,274 L 33.34,274.93 L 33.34,275.39 L 33.34,276.32 L 33.34,277.71 L 33.34,278.17 L 33.34,279.09 L 33.34,280.02 L 33.34,280.48 L 33.34,281.41 L 33.34,281.87 L 33.34,282.8 L 33.34,283.26 L 33.34,284.19 L 33.34,284.65 L 33.34,285.58 L 33.34,286.04 L 33.34,286.96 L 33.34,287.43 L 33.34,288.35 L 33.34,288.82 L 33.34,289.74 L 33.34,290.67 L 33.34,291.13 L 33.34,292.06 L 33.34,292.52 L 33.34,293.45 L 33.34,293.91 L 33.34,294.84 L 33.34,295.3 L 33.34,296.22 L 33.34,296.69 L 33.34,297.61 L 33.34,298.08 L 33.34,299 L 33.34,299.93 L 33.34,300.39 L 33.34,301.32 L 33.34,301.78 L 33.34,302.71 L 33.34,303.17 L 33.34,304.09 L 33.34,304.56 L 33.34,305.48 L 33.34,306.87 L 32.42,307.34 L 32.42,308.26 L 32.42,309.19 L 32.42,309.65 L 32.42,310.58 L 32.42,311.04 L 31.96,311.04 L 31.96,311.96 L 31.96,312.43 L 31.96,313.35 L 31.96,313.82 L 31.96,314.74 L 31.96,315.21 L 31.03,316.13 L 31.03,316.59 L 31.03,317.52 L 31.03,317.98 L 31.03,318.91 L 31.03,319.84 L 31.03,320.3 L 31.03,321.22 L 31.03,321.69 L 31.03,322.61 L 31.03,323.08 L 31.49,323.08 L 31.49,324 L 31.49,324.46 L 31.49,325.39 L 31.49,325.85 L 31.49,326.78 L 31.03,326.78 L 31.03,327.24 L 30.57,327.24 L 30.57,328.17 L 30.57,329.09" fill="none" stroke="#6190e8" stroke-width="2"></path><path d="M 77.74,234.1 L 77.33,234.19 L 76.86,234.19 L 75.94,234.19 L 75.47,234.19 L 74.55,234.65 L 74.08,234.65 L 73.16,234.65 L 73.16,235.11 L 72.7,235.11 L 71.77,236.04 L 70.84,236.04 L 70.38,236.04 L 69.46,236.96 L 68.99,236.96 L 68.07,236.96 L 68.07,237.43 L 67.6,237.43 L 66.68,237.43 L 66.21,238.35 L 65.29,238.35 L 64.83,238.35 L 64.83,238.82 L 63.9,238.82 L 63.9,239.74 L 63.44,239.74 L 62.51,240.21 L 62.51,241.13 L 61.58,241.13 L 61.12,241.13 L 61.12,241.59 L 60.2,242.52 L 60.2,242.98 L 60.2,243.91 L 59.73,243.91 L 59.73,244.37 L 59.73,245.3 L 59.73,245.76 L 58.81,246.69 L 58.81,247.61 L 58.81,248.08 L 58.81,249 L 58.34,249 L 58.34,249.46 L 58.34,250.39 L 58.34,250.85 L 58.34,251.78 L 58.34,252.24 L 59.27,252.24 L 59.73,253.17 L 60.66,253.17 L 60.66,253.63 L 61.12,253.63 L 62.05,253.63 L 62.97,253.63 L 63.44,253.63 L 64.36,253.63 L 64.83,253.63 L 65.75,253.63 L 65.75,254.56 L 66.21,254.56 L 67.14,254.56 L 67.6,254.56 L 67.6,254.09 L 68.53,254.09 L 68.99,254.09 L 69.92,254.09 L 70.38,254.09 L 71.31,254.09 L 72.23,254.09 L 72.7,254.09" fill="none" stroke="#6190e8" stroke-width="2"></path><path d="M 81.44,260.49 L 81.49,261.04 L 81.49,261.5 L 81.49,262.43 L 81.49,262.89 L 81.49,263.82 L 81.49,264.28 L 81.49,265.21 L 81.49,265.67 L 81.49,266.59 L 81.49,267.52 L 81.49,267.98 L 81.49,268.91 L 81.49,269.37 L 81.03,269.37 L 81.03,270.3 L 81.03,270.76 L 81.03,271.69" fill="none" stroke="#6190e8" stroke-width="2"></path><path d="M 131.9,232.71 L 131.03,232.8 L 130.57,232.8 L 129.64,233.72 L 129.64,234.19 L 129.18,234.19 L 128.25,235.11 L 128.25,235.58 L 128.25,236.5 L 127.33,236.96 L 127.33,237.89 L 126.86,238.35 L 126.86,239.28 L 126.86,239.74 L 125.94,239.74 L 125.94,240.67 L 125.94,241.59 L 125.47,241.59 L 125.47,242.06 L 125.47,242.98 L 125.47,243.45 L 124.55,243.45 L 124.55,244.37 L 124.55,244.84 L 124.08,245.76 L 124.08,246.22 L 124.08,247.15 L 123.16,247.61 L 123.16,248.54 L 123.16,249.93 L 122.7,250.39 L 122.7,251.32 L 122.7,252.71 L 121.77,253.63 L 121.77,254.09 L 121.77,255.02 L 121.77,255.48 L 121.77,256.41 L 121.77,256.87 L 121.77,257.8 L 121.77,258.26 L 121.77,259.19 L 121.77,259.65 L 122.23,259.65 L 122.23,260.58 L 122.7,260.58 L 122.7,261.5 L 122.7,261.96 L 123.62,261.96 L 123.62,262.89 L 124.08,262.89 L 124.08,263.35 L 125.01,263.35 L 125.47,263.35 L 125.47,264.28 L 126.4,264.28 L 126.86,264.28 L 127.79,264.28 L 128.71,264.28 L 130.1,264.28 L 130.57,264.28 L 131.49,264.28 L 131.96,264.28 L 132.88,264.28 L 133.34,264.28 L 134.27,264.28 L 134.73,264.28 L 135.66,264.28 L 136.12,264.28 L 137.05,264.28 L 137.05,263.82 L 137.97,263.82 L 138.44,263.35 L 139.36,263.35 L 139.36,262.43 L 139.36,261.96 L 139.36,261.04 L 139.36,260.11 L 139.36,259.65 L 139.36,258.72 L 139.36,258.26 L 139.36,257.34 L 139.36,256.87 L 138.9,256.87 L 138.9,255.95 L 138.44,255.95 L 138.44,255.48 L 137.51,254.56 L 137.51,254.09 L 136.58,254.09 L 136.12,254.09 L 135.2,253.17 L 135.2,252.71 L 134.73,252.71 L 133.81,252.71 L 133.34,251.78 L 132.42,251.78 L 131.96,251.78 L 131.03,251.78 L 130.57,251.78 L 129.64,251.78" fill="none" stroke="#6190e8" stroke-width="2"></path><path d="M 150.42,266.51 L 149.5,266.51 L 149.55,267.06 L 149.55,267.52 L 149.55,268.45 L 149.55,268.91 L 149.55,269.84" fill="none" stroke="#6190e8" stroke-width="2"></path><path d="M 150.89,262.8 L 150.94,263.35 L 150.47,264.28 L 150.47,264.74 L 150.47,265.67 L 150.47,266.13 L 150.47,267.06 L 150.47,267.52 L 150.47,268.45 L 150.47,268.91 L 149.55,268.91 L 149.55,269.84 L 149.55,270.76 L 149.55,271.22 L 149.55,272.15 L 149.55,272.61 L 149.55,273.54 L 149.55,274 L 149.55,274.93 L 149.55,275.39 L 150.01,275.39" fill="none" stroke="#6190e8" stroke-width="2"></path><path d="M 125.42,295.67 L 124.55,295.76 L 124.55,296.22 L 124.55,296.69 L 124.55,297.61 L 124.08,297.61 L 124.08,298.08 L 124.08,299 L 124.08,299.93 L 124.08,300.39 L 123.16,301.32 L 123.16,301.78 L 123.16,302.71 L 123.16,303.17 L 123.16,304.09 L 123.16,304.56 L 122.7,304.56 L 122.7,305.48 L 122.7,305.95 L 122.7,306.87 L 122.7,307.34 L 122.7,308.26 L 122.7,309.19 L 122.7,309.65 L 122.7,310.58 L 122.7,311.04 L 122.7,311.96 L 122.7,312.43 L 122.7,313.35 L 122.7,313.82 L 122.7,314.74 L 122.7,315.21 L 122.7,316.13 L 122.7,316.59 L 122.7,317.52 L 122.7,317.98 L 122.7,318.91 L 122.7,319.84 L 122.7,320.3 L 122.7,321.22 L 123.62,321.22 L 123.62,321.69 L 123.62,322.61 L 123.62,323.08 L 124.08,323.08 L 125.01,323.08 L 125.47,323.08 L 126.4,323.08 L 126.86,324 L 127.79,324 L 128.71,324 L 129.18,324 L 130.1,324 L 130.57,324 L 130.57,323.54 L 131.49,323.54 L 131.96,323.54 L 131.96,323.08 L 132.88,323.08 L 133.34,322.15 L 134.27,322.15 L 134.73,322.15 L 134.73,321.69 L 135.66,321.69 L 135.66,320.76 L 136.12,320.76 L 136.12,320.3 L 136.12,319.37 L 136.12,318.45 L 136.12,317.98 L 135.2,317.98 L 135.2,317.06 L 134.73,317.06 L 133.81,317.06 L 133.81,316.59 L 133.34,316.59 L 132.42,316.59 L 131.96,316.59 L 131.03,316.59 L 130.57,316.59 L 129.64,316.59 L 129.18,316.59 L 128.25,316.59 L 127.33,316.59 L 126.86,316.59 L 125.94,316.59 L 125.47,316.59 L 124.55,316.59 L 124.08,316.59 L 123.16,316.59 L 122.7,316.59" fill="none" stroke="#6190e8" stroke-width="2"></path><path d="M 142.55,332.25 L 142.6,331.41 L 142.6,330.95 L 142.6,330.02 L 142.6,329.56 L 142.6,328.63 L 143.53,328.63 L 143.53,327.71 L 143.53,327.24 L 143.99,327.24 L 144.92,327.24 L 144.92,326.32 L 145.38,326.32 L 146.31,326.32 L 146.31,325.85 L 146.77,325.85 L 147.7,325.85 L 148.62,325.85 L 148.16,326.78 L 148.16,327.24 L 147.23,327.24 L 147.23,328.17 L 146.77,329.09 L 146.77,329.56 L 146.77,330.48 L 145.84,330.48 L 145.84,330.95 L 145.38,331.87 L 145.38,332.34 L 144.46,333.26 L 144.46,333.72 L 144.46,334.65 L 143.99,334.65 L 143.07,334.65 L 143.07,335.11 L 143.07,336.04 L 143.07,336.5 L 142.6,336.5 L 143.53,336.5 L 143.99,336.5 L 144.92,336.5 L 145.38,336.5 L 146.31,336.5 L 146.31,337.43 L 146.77,337.43 L 147.7,337.43 L 148.62,337.43 L 149.08,337.43 L 150.01,337.43" fill="none" stroke="#6190e8" stroke-width="2"></path><path d="M 199.5,292.43 L 200.01,292.52 L 200.47,291.59 L 201.4,291.59 L 201.86,291.13 L 202.79,290.21 L 204.18,290.21 L 205.57,290.21 L 207.88,289.74 L 209.27,288.82 L 211.12,288.82 L 212.51,288.82 L 213.44,288.82 L 215.75,288.35 L 216.21,288.35 L 217.6,288.35 L 218.99,288.35 L 220.38,288.35 L 221.31,288.35 L 222.7,288.35 L 223.62,288.35 L 224.08,288.35 L 225.01,288.35 L 225.47,288.35 L 226.4,288.35 L 226.86,288.35 L 227.79,288.35 L 227.79,287.43" fill="none" stroke="#6190e8" stroke-width="2"></path><path d="M 201.81,281.79 L 202.79,281.87 L 204.18,281.87 L 205.1,281.87 L 205.57,281.87 L 206.49,281.87 L 207.88,281.87 L 208.34,282.8 L 209.73,282.8 L 211.12,282.8 L 212.05,282.8 L 213.44,282.8 L 215.75,283.26 L 216.21,283.26 L 217.6,283.26 L 218.53,283.26 L 219.92,283.26 L 221.31,283.26 L 222.7,283.26 L 223.62,283.26 L 225.01,283.26 L 225.47,283.26 L 226.4,283.26 L 227.79,283.26 L 228.25,283.26 L 229.18,283.26 L 229.64,283.26 L 230.57,283.26 L 231.03,283.26" fill="none" stroke="#6190e8" stroke-width="2"></path><path d="M 255.98,260.49 L 256.03,261.5 L 256.03,261.96 L 256.03,262.89 L 255.1,263.35 L 255.1,264.28 L 255.1,265.21 L 255.1,265.67 L 255.1,266.59 L 255.1,267.06 L 254.64,267.98 L 254.64,269.37 L 253.71,271.22 L 253.71,272.15 L 253.71,274 L 253.71,274.93 L 253.71,277.24 L 253.71,277.71 L 253.25,280.48 L 253.25,281.87 L 253.25,283.26 L 253.25,285.11 L 253.25,285.58 L 253.25,286.96 L 253.25,288.35 L 253.25,289.74 L 253.25,290.67 L 253.25,292.06 L 252.33,292.52 L 252.33,293.45 L 252.33,294.37 L 252.33,294.84 L 252.33,295.76 L 252.33,296.22 L 252.33,297.15 L 252.33,297.61 L 252.79,297.61 L 252.79,298.54 L 253.25,298.54 L 253.25,299 L 254.18,299 L 254.18,299.93 L 254.64,299.93 L 255.57,300.39 L 255.57,301.32 L 256.03,301.32 L 256.96,301.32 L 257.42,301.32 L 258.34,301.32 L 259.27,301.32 L 259.73,301.32 L 260.66,301.32 L 261.12,301.32 L 262.05,301.32 L 262.51,301.32 L 262.51,300.85 L 263.44,300.85 L 263.9,300.39 L 264.83,300.39 L 265.29,300.39 L 266.21,299.46 L 266.68,299.46 L 266.68,299 L 267.6,298.08 L 268.99,297.61 L 269.92,297.61 L 269.92,296.69 L 269.92,296.22 L 270.38,296.22 L 270.38,295.3 L 271.31,294.84 L 271.31,293.91 L 271.31,292.98 L 271.77,292.98 L 271.77,292.52 L 272.7,292.52 L 272.7,291.59 L 272.7,291.13 L 273.16,289.74 L 273.16,288.82 L 273.16,288.35 L 274.08,288.35 L 274.08,287.43 L 274.08,286.96 L 274.08,286.04 L 274.08,285.58 L 274.08,284.65 L 274.08,283.72 L 274.08,283.26 L 274.08,282.34 L 273.62,282.34 L 273.62,281.87 L 273.62,280.95 L 273.62,280.48 L 273.62,279.56 L 273.62,279.09 L 273.16,279.09 L 273.16,278.17 L 273.16,277.71 L 273.16,276.78 L 272.23,276.78 L 272.23,276.32 L 271.77,276.32 L 271.77,275.39 L 271.77,274.46 L 270.84,274.46 L 270.84,274 L 270.84,273.08 L 270.38,273.08 L 270.38,272.61 L 269.46,272.61 L 269.46,271.69 L 268.53,271.22 L 268.53,270.3 L 268.53,269.84 L 268.07,269.84 L 268.07,268.91 L 267.14,268.91 L 266.68,268.91 L 266.68,268.45 L 265.75,268.45 L 265.75,267.52 L 265.29,267.52 L 264.36,267.52 L 264.36,267.06 L 263.9,267.06 L 262.97,267.06 L 262.97,266.13 L 262.51,266.13 L 261.58,266.13 L 261.12,265.67 L 260.2,264.74 L 259.73,264.74 L 258.81,264.74 L 257.88,264.74 L 257.88,263.82 L 257.42,263.82 L 256.49,263.82 L 256.49,263.35 L 256.03,263.35" fill="none" stroke="#6190e8" stroke-width="2"></path><path d="M 280.52,304.01 L 279.64,304.09 L 280.1,304.09 L 281.03,303.63 L 281.49,302.71 L 282.42,302.71 L 282.42,302.24 L 282.88,302.24 L 282.88,301.32 L 283.81,301.32 L 284.27,301.32 L 285.2,300.85 L 285.66,300.85 L 285.66,299.93 L 286.58,299.93 L 286.58,299.46 L 287.05,299.46 L 287.05,298.54 L 287.97,298.54 L 288.44,298.54 L 288.44,298.08 L 288.44,297.15 L 289.36,297.15 L 289.36,297.61 L 289.36,298.08 L 289.36,299 L 289.36,299.46 L 289.36,300.39 L 289.36,300.85 L 289.36,301.78 L 288.9,301.78 L 288.9,302.24 L 288.9,303.17 L 288.9,303.63 L 288.44,304.56 L 288.44,305.02 L 287.51,305.95 L 287.51,306.87 L 287.05,307.34 L 287.05,308.26 L 287.05,308.72 L 287.05,309.65 L 286.12,310.11 L 286.12,311.04 L 285.66,311.5 L 285.66,312.43 L 284.73,312.43 L 284.73,312.89 L 284.73,313.82 L 285.2,313.82 L 285.2,313.35 L 285.66,312.89 L 286.58,312.89 L 286.58,311.96 L 287.05,311.5 L 287.97,310.58 L 287.97,310.11 L 288.44,310.11 L 288.44,309.19 L 288.44,308.72 L 289.36,308.72 L 289.36,307.8 L 289.83,307.8 L 289.83,307.34 L 289.83,306.41 L 290.75,306.41 L 290.75,305.48 L 291.68,305.02 L 291.68,304.09 L 292.14,304.09 L 292.14,303.63 L 292.14,302.71 L 293.07,302.71 L 293.07,302.24 L 293.53,302.24 L 294.46,302.24 L 294.46,301.32 L 294.46,301.78 L 294.46,302.24 L 294.46,303.17 L 294.46,303.63 L 294.92,303.63 L 294.92,304.56 L 294.92,305.02 L 294.92,305.95 L 294.92,306.87 L 294.92,307.34 L 294.92,308.26 L 294.92,308.72 L 294.92,309.65 L 294.92,310.11 L 294.92,311.04 L 294.92,311.5 L 294.92,312.43 L 294.92,312.89 L 294.92,313.82 L 295.84,313.82 L 296.31,313.82 L 297.7,313.82 L 298.62,313.82 L 299.08,313.82" fill="none" stroke="#6190e8" stroke-width="2"></path><path d="M 79.59,323.45 L 79.64,323.08 L 79.64,322.15 L 79.64,321.69 L 79.64,320.76 L 79.64,320.3 L 80.1,320.3 L 80.1,319.37 L 80.1,318.45 L 80.1,317.98 L 80.57,317.06 L 80.57,316.59 L 80.57,315.67 L 80.57,315.21 L 81.49,315.21 L 81.96,315.21 L 81.96,314.28 L 82.88,314.28 L 83.81,314.28 L 84.27,314.28 L 85.2,314.28 L 85.66,314.28 L 86.58,314.28 L 87.05,314.28 L 87.05,314.74 L 87.05,315.21 L 87.05,316.13 L 87.05,316.59 L 87.05,317.52 L 87.05,317.98 L 87.05,318.91 L 86.12,318.91 L 86.12,319.84 L 86.12,320.3 L 86.12,321.22 L 86.12,321.69 L 86.12,322.61 L 86.12,323.08 L 86.12,324 L 86.12,324.46 L 86.12,325.39 L 86.12,325.85 L 86.12,326.78 L 85.66,326.78 L 84.73,327.24 L 84.73,328.17 L 84.27,328.17 L 83.34,329.09 L 82.42,329.09 L 82.42,329.56 L 81.96,329.56 L 81.03,330.48 L 80.57,330.48 L 80.57,330.95 L 79.64,330.95 L 79.64,331.87 L 79.18,331.87 L 78.25,331.87 L 78.25,332.34 L 77.79,332.34 L 77.79,333.26 L 76.86,333.26 L 76.4,333.26 L 77.33,333.26 L 77.33,332.8 L 77.79,332.8 L 78.71,332.8 L 79.18,332.8 L 80.1,332.8 L 80.57,332.8 L 81.49,332.8 L 81.96,332.8 L 82.88,332.8 L 83.81,332.8 L 84.27,332.8 L 84.27,332.34 L 85.2,332.34 L 85.66,332.34 L 86.58,332.34 L 87.05,332.34 L 87.97,332.34 L 88.44,332.34 L 89.36,331.41 L 89.83,331.41 L 90.75,331.41 L 91.21,331.41 L 92.14,331.41" fill="none" stroke="#6190e8" stroke-width="2"></path><path d="M 31.9,396.6 L 31.96,397.15 L 31.96,398.54 L 31.96,399.46 L 31.96,399.93 L 31.96,400.85 L 31.96,402.24 L 31.96,403.63 L 31.96,405.02 L 31.96,406.41 L 31.96,409.19 L 31.96,410.58 L 31.96,412.89 L 31.96,414.74 L 31.96,417.06 L 31.96,419.84 L 31.96,422.15 L 31.96,424 L 31.96,426.32 L 31.96,428.63 L 31.96,431.87 L 31.96,435.58 L 31.96,438.35 L 31.96,442.52 L 31.96,445.3 L 31.96,448.08 L 31.96,451.78 L 31.96,454.56 L 31.96,458.26 L 31.96,461.04 L 31.96,463.35 L 31.96,466.13 L 31.96,468.45 L 31.96,470.3 L 31.96,471.69 L 31.96,474.46 L 32.88,476.78 L 32.88,478.17 L 32.88,480.48 L 32.88,482.8 L 32.88,484.19 L 33.34,486.04 L 33.34,487.43 L 33.34,488.82 L 34.27,490.21 L 34.27,492.06 L 34.27,493.45 L 34.27,493.91 L 34.27,494.84 L 34.27,495.3 L 34.27,496.22 L 35.2,496.22 L 35.2,496.69" fill="none" stroke="#6190e8" stroke-width="2"></path><path d="M 70.33,405.4 L 70.38,406.41 L 70.38,406.87 L 70.38,407.8 L 70.38,408.26 L 70.38,409.19 L 70.38,409.65 L 70.38,410.58 L 70.38,411.04 L 70.38,411.96 L 70.38,412.43 L 71.31,414.28 L 71.77,414.74 L 72.7,416.13 L 72.7,417.06 L 73.16,417.06 L 73.16,418.45 L 74.08,418.91 L 74.55,418.91 L 75.47,420.3 L 75.47,421.22 L 76.4,421.69 L 76.86,422.61 L 77.79,423.08 L 78.25,424 L 78.25,424.93 L 79.18,424.93 L 79.64,424.93 L 80.57,424.93 L 81.03,425.39 L 81.96,425.39 L 82.42,425.39 L 83.34,425.39 L 83.81,426.32 L 84.73,426.32 L 85.66,426.32" fill="none" stroke="#6190e8" stroke-width="2"></path><path d="M 74.96,424.84 L 74.55,424.93 L 74.55,425.39 L 74.55,426.32 L 73.62,426.32 L 73.62,426.78 L 73.16,426.78 L 73.16,427.71 L 72.23,427.71 L 72.23,428.17 L 71.77,428.17 L 71.77,429.09 L 70.84,429.09 L 70.38,429.09 L 70.38,429.56 L 69.46,429.56 L 69.46,430.48 L 68.99,430.48 L 68.07,430.48 L 67.6,430.48 L 67.6,430.95 L 66.68,430.95 L 66.21,430.95 L 65.29,430.95 L 64.36,430.95 L 64.36,430.02 L 63.9,430.02 L 63.9,429.56 L 62.97,428.63 L 62.51,428.17 L 62.51,427.24 L 61.58,426.78 L 61.58,425.85 L 61.12,425.85 L 61.12,425.39 L 61.12,424.46 L 61.12,423.54 L 61.12,423.08 L 61.12,422.15 L 61.12,421.69 L 61.12,420.76 L 61.12,420.3 L 61.12,419.37 L 61.12,418.91 L 61.12,417.98 L 61.12,417.52 L 61.12,416.59 L 61.12,416.13 L 61.12,415.21 L 62.05,415.21 L 62.51,414.74 L 62.51,413.82 L 63.44,413.82 L 63.44,412.89 L 63.9,412.89 L 63.9,412.43 L 64.83,412.43 L 64.83,411.5 L 65.75,411.5 L 66.21,411.5 L 66.21,411.04 L 67.14,411.04" fill="none" stroke="#6190e8" stroke-width="2"></path><path d="M 93.48,428.08 L 93.53,429.09 L 93.53,429.56 L 93.53,430.48 L 93.53,430.95 L 93.53,431.87 L 93.53,432.34 L 93.53,433.26 L 93.53,434.19 L 93.53,434.65 L 93.53,435.58 L 93.53,436.04 L 93.53,436.96 L 93.53,437.43 L 93.53,438.35 L 93.53,438.82 L 93.53,439.74 L 93.99,440.21 L 93.99,441.13 L 93.99,441.59 L 93.99,442.52 L 94.92,442.52 L 94.92,442.98" fill="none" stroke="#6190e8" stroke-width="2"></path><path d="M 136.53,409.56 L 135.66,409.65 L 135.2,409.65 L 134.27,409.65 L 133.34,409.65 L 132.88,409.65 L 131.96,409.65 L 131.49,409.65 L 130.57,409.65 L 130.1,409.65 L 129.18,409.65 L 129.18,410.58 L 128.71,410.58 L 127.79,410.58 L 127.33,410.11 L 126.4,410.11 L 125.94,410.11 L 125.94,409.65 L 125.01,409.65 L 124.08,409.65 L 123.62,409.65 L 123.62,410.58 L 123.62,411.04 L 122.7,411.96 L 122.7,412.43 L 122.23,413.35 L 122.23,414.28 L 122.23,414.74 L 121.31,414.74 L 121.31,415.67 L 121.31,416.13 L 121.31,417.06 L 120.84,417.06 L 120.84,417.52 L 120.84,418.45 L 119.92,418.91 L 119.92,419.84 L 119.92,420.3 L 119.92,421.22 L 119.92,421.69 L 119.92,422.61 L 120.38,422.61 L 120.38,423.08 L 120.84,423.08 L 121.77,423.08 L 122.23,424 L 123.16,424 L 123.16,424.93 L 123.62,424.93 L 123.62,425.39 L 124.55,425.39 L 125.47,425.39 L 125.47,426.32 L 125.94,426.32 L 126.86,426.78 L 127.33,426.78 L 127.33,427.71 L 128.25,427.71 L 128.25,428.17 L 128.71,428.17 L 129.64,428.17 L 130.1,428.17 L 131.03,428.17 L 131.49,428.17 L 132.42,428.17 L 132.88,428.17 L 134.73,428.17 L 135.2,428.17 L 136.12,428.17" fill="none" stroke="#6190e8" stroke-width="2"></path><path d="M 143.48,429.47 L 143.53,430.95 L 143.53,431.87 L 143.53,432.34 L 143.53,433.26 L 143.53,434.19 L 143.53,434.65 L 143.53,435.58 L 143.53,436.04 L 143.53,436.96 L 142.6,437.43 L 142.6,438.35 L 142.6,438.82 L 142.6,439.74 L 142.6,440.21 L 142.6,441.13" fill="none" stroke="#6190e8" stroke-width="2"></path><path d="M 70.79,472.99 L 71.77,473.08 L 71.77,474 L 71.77,474.46 L 72.23,475.39 L 72.23,475.85 L 72.23,476.78 L 72.23,477.24 L 73.16,477.24 L 73.16,478.17 L 73.16,478.63 L 73.62,479.56 L 73.62,480.48 L 73.62,480.95 L 74.55,481.87 L 74.55,482.34 L 74.55,483.26 L 74.55,483.72 L 74.55,484.65 L 75.01,485.11 L 75.94,486.04 L 75.94,486.5 L 75.94,487.43 L 75.94,487.89 L 76.4,487.89 L 76.4,488.82 L 76.4,489.28 L 76.4,490.21 L 77.33,491.13 L 77.33,491.59 L 78.71,492.52 L 78.71,492.98 L 78.71,493.91 L 79.64,493.91 L 81.03,494.37 L 81.49,495.3 L 82.42,495.3 L 83.34,495.3 L 83.81,495.3" fill="none" stroke="#6190e8" stroke-width="2"></path><path d="M 79.13,488.73 L 78.71,488.82 L 77.79,488.82 L 77.33,488.82 L 77.33,489.74 L 76.4,489.74 L 76.4,490.21 L 75.94,490.21 L 75.94,491.13 L 75.01,491.13 L 75.01,491.59 L 75.01,492.52 L 74.55,492.52 L 73.62,492.52 L 73.62,492.98 L 73.16,493.91 L 73.16,494.37 L 72.23,494.37 L 71.31,494.37 L 71.31,495.3 L 70.84,495.3 L 69.92,495.3 L 69.46,495.76 L 68.53,495.76 L 68.07,495.76 L 67.14,495.76 L 66.68,495.76 L 65.75,495.76 L 65.29,495.76 L 64.36,495.76 L 63.9,495.76 L 62.97,495.76 L 62.97,494.84 L 62.05,494.84 L 62.05,494.37 L 61.58,494.37 L 61.58,493.45 L 60.66,493.45 L 60.66,492.98 L 60.66,492.06 L 60.66,491.59 L 60.2,491.59 L 60.2,490.67 L 60.2,490.21 L 60.2,489.28 L 60.2,488.82 L 60.2,487.89 L 60.2,486.5 L 60.2,485.58 L 60.2,485.11 L 60.2,484.19 L 60.2,483.72 L 61.12,482.34 L 61.12,481.41 L 61.58,480.95 L 61.58,480.02 L 61.58,479.56 L 62.51,479.56 L 62.51,478.63 L 63.44,478.17 L 63.9,478.17 L 63.9,477.24 L 64.83,477.24 L 64.83,476.32 L 65.29,476.32 L 66.21,476.32 L 66.68,476.32 L 66.68,475.85 L 67.6,475.85 L 68.07,475.85 L 68.99,474.93 L 69.46,474.93 L 70.38,474.93 L 70.84,474.93 L 70.84,474.46" fill="none" stroke="#6190e8" stroke-width="2"></path><path d="M 86.53,506.79 L 87.51,506.87 L 87.51,506.41 L 87.97,506.41 L 87.97,505.48 L 87.97,505.02 L 88.9,505.02 L 89.36,504.09 L 89.36,503.63 L 89.36,502.71 L 90.29,502.71 L 90.29,502.24 L 90.75,501.32 L 91.68,500.85 L 92.6,500.85 L 92.6,499.93 L 93.07,499.93 L 93.99,499.46 L 94.46,499.46 L 95.38,499.46 L 95.84,499.46 L 96.77,499.46 L 97.23,499.46 L 97.23,500.39 L 97.23,500.85 L 97.23,501.78 L 97.23,502.24 L 96.31,502.24 L 95.84,503.17 L 95.84,503.63 L 95.84,504.56 L 94.92,505.02 L 94.46,505.95 L 94.46,506.87 L 93.53,506.87 L 93.53,507.34 L 93.07,507.34 L 93.07,508.26 L 92.14,508.26 L 91.21,508.72 L 91.21,509.65 L 90.75,510.11 L 90.75,511.04 L 89.83,511.04 L 89.36,511.5 L 90.29,511.5 L 91.68,511.5 L 91.68,512.43 L 92.6,512.43 L 93.99,512.89 L 94.46,512.89 L 95.38,512.89 L 96.77,512.89 L 97.23,512.89 L 98.62,512.89 L 99.55,512.89 L 100.94,512.89 L 101.4,512.89 L 102.33,512.89 L 103.71,512.89 L 104.64,512.89 L 105.1,512.89 L 106.03,512.89" fill="none" stroke="#6190e8" stroke-width="2"></path><path d="M 138.85,473.45 L 138.44,473.54 L 137.51,473.54 L 137.05,473.54 L 137.05,473.08 L 136.12,473.08 L 135.66,473.08 L 134.73,473.08 L 134.27,473.08 L 133.34,473.08 L 132.88,473.08 L 131.96,473.08 L 131.49,473.08 L 130.57,473.08 L 130.1,473.08 L 129.18,473.08 L 129.18,474 L 128.71,474 L 127.79,474 L 127.79,474.46 L 127.79,475.39 L 126.86,475.85 L 126.4,475.85 L 125.47,476.78 L 125.47,477.71 L 125.47,478.17 L 125.01,479.09 L 124.08,479.56 L 124.08,480.48 L 123.62,480.95 L 123.62,482.34 L 122.7,483.26 L 122.7,484.65 L 122.23,484.65 L 122.23,485.11 L 122.23,486.04 L 121.31,486.04 L 121.31,486.5 L 121.31,487.43 L 121.31,488.35 L 121.31,488.82 L 121.31,489.74 L 121.31,490.21 L 121.31,491.13 L 121.31,491.59 L 121.31,492.52 L 121.31,492.98 L 121.31,493.91 L 121.31,494.37 L 121.77,495.3 L 122.23,495.76 L 123.16,495.76 L 123.62,496.69 L 124.55,496.69 L 125.01,496.69 L 125.94,496.69 L 126.4,496.69 L 127.33,496.69 L 128.25,496.69 L 128.25,497.61 L 128.71,497.61 L 129.64,497.61 L 130.1,497.61 L 131.03,497.61 L 131.49,497.61 L 132.42,497.61 L 132.88,497.61 L 133.81,497.61 L 134.27,497.61 L 135.2,497.61 L 135.66,497.61" fill="none" stroke="#6190e8" stroke-width="2"></path><path d="M 142.55,504.01 L 142.55,503.54 L 142.14,503.63 L 142.14,502.71 L 142.14,502.24 L 143.07,502.24 L 143.07,501.32 L 143.07,500.85 L 143.07,499.93 L 143.53,499.93 L 143.53,499.46 L 144.46,499.46 L 144.46,498.54 L 144.92,498.54 L 144.92,498.08 L 145.84,498.08 L 146.31,498.08 L 147.23,498.08 L 148.16,498.08 L 148.62,499 L 149.55,499 L 150.01,499 L 150.01,499.46 L 150.94,499.46 L 151.4,499.46 L 151.4,500.39 L 152.33,500.39 L 152.33,500.85 L 152.33,501.78 L 152.33,502.24 L 152.33,503.17 L 151.86,503.17 L 151.86,503.63 L 151.86,504.56 L 151.4,505.02 L 150.47,505.02 L 150.47,505.95 L 150.01,506.87 L 149.08,507.34 L 148.62,507.34 L 148.62,508.26 L 147.7,508.26 L 147.7,508.72 L 146.77,509.65 L 146.31,509.65 L 146.31,510.11 L 145.38,510.11 L 144.92,511.5 L 143.99,511.5 L 143.99,512.43 L 143.53,512.89 L 142.6,513.82 L 142.6,514.28 L 142.14,514.28 L 143.07,514.28 L 143.53,514.28 L 144.46,514.28 L 144.92,514.28 L 145.84,514.28 L 146.31,514.28 L 147.23,514.28 L 148.16,514.28 L 148.62,514.28 L 149.55,514.28 L 150.01,514.28 L 150.94,514.28 L 151.4,514.28 L 152.33,514.28 L 152.79,514.28 L 153.71,514.28 L 154.18,514.28 L 155.1,514.28" fill="none" stroke="#6190e8" stroke-width="2"></path><path d="M 174.5,404.47 L 174.55,406.41 L 174.55,407.8 L 175.01,409.65 L 175.01,411.04 L 175.01,411.96 L 175.47,413.82 L 175.47,416.13 L 175.47,417.52 L 175.47,418.91 L 176.4,421.22 L 176.4,423.08 L 176.4,426.32 L 176.4,428.17 L 176.4,431.87 L 176.4,434.65 L 176.4,437.89 L 177.33,441.59 L 177.33,446.69 L 177.33,452.24 L 177.33,455.02 L 177.79,461.04 L 177.79,467.52 L 177.79,471.69 L 177.79,477.24 L 177.79,484.19 L 177.79,489.74 L 177.79,494.37 L 178.71,498.08 L 178.71,503.17 L 178.71,507.8 L 178.71,511.5 L 178.71,512.89 L 179.64,514.28 L 179.64,515.67 L 179.64,516.13" fill="none" stroke="#6190e8" stroke-width="2"></path><path d="M 197.18,479.93 L 198.16,480.02 L 198.62,480.02 L 199.55,480.02 L 200.01,480.95 L 200.94,480.95 L 201.4,480.95 L 202.33,480.95 L 202.79,480.95 L 203.71,480.95" fill="none" stroke="#6190e8" stroke-width="2"></path><path d="M 200.42,468.36 L 200.94,468.45 L 201.4,468.45 L 202.33,468.45 L 202.79,468.45 L 203.71,468.45 L 204.18,468.45 L 205.1,468.45" fill="none" stroke="#6190e8" stroke-width="2"></path><path d="M 199.96,470.67 L 200.01,470.3 L 200.94,470.3 L 201.4,470.3 L 202.33,470.3 L 202.79,470.3 L 203.71,470.3 L 204.18,470.3 L 206.03,470.3 L 207.42,470.3 L 208.81,470.3 L 209.27,470.3 L 210.2,470.3 L 211.58,470.3 L 212.97,470.3 L 213.44,470.3 L 214.36,470.3 L 215.29,470.3 L 215.75,470.3 L 216.68,470.3 L 217.14,470.3 L 218.07,470.3 L 218.53,470.3 L 219.46,470.3" fill="none" stroke="#6190e8" stroke-width="2"></path><path d="M 199.96,481.32 L 200.94,481.41 L 201.4,481.41 L 202.33,481.41 L 202.79,481.41 L 203.71,481.41 L 204.18,481.41 L 205.1,481.41 L 206.03,481.41 L 206.49,481.41 L 207.42,481.41 L 208.81,481.41 L 209.27,481.41 L 210.2,481.41 L 210.66,481.41 L 211.58,481.41 L 211.58,481.87 L 212.05,481.87 L 212.97,481.87 L 213.44,481.87 L 214.36,481.87 L 215.29,481.87 L 215.75,481.87 L 216.68,482.34 L 217.14,482.34 L 218.07,482.34" fill="none" stroke="#6190e8" stroke-width="2"></path><path d="M 243.02,446.14 L 243.07,446.69 L 243.07,447.61 L 243.07,448.08 L 243.07,449 L 243.07,449.46 L 243.07,451.32 L 243.07,451.78 L 243.07,452.71 L 243.07,454.09 L 243.07,454.56 L 243.07,455.95 L 243.07,457.34 L 243.07,458.26 L 243.07,459.65 L 243.07,461.04 L 243.07,461.96 L 243.07,463.82 L 243.07,465.21 L 243.53,467.52 L 243.53,468.91 L 243.53,469.84 L 243.53,471.69 L 243.53,473.08 L 243.99,475.39 L 243.99,475.85 L 243.99,477.24 L 243.99,478.63 L 243.99,480.95 L 243.99,481.87 L 243.99,483.72 L 243.99,485.11 L 243.99,486.5 L 243.99,487.89 L 243.99,488.82 L 243.99,491.13 L 243.99,491.59 L 244.92,492.98 L 244.92,493.91 L 244.92,494.37 L 244.92,495.3 L 244.92,495.76 L 244.92,496.69 L 244.92,497.15 L 245.84,497.15 L 246.31,497.15 L 247.23,497.15 L 247.7,497.15 L 248.62,497.15 L 249.08,496.22 L 250.01,496.22 L 250.01,495.76 L 250.47,495.76 L 251.4,495.76 L 251.4,494.84 L 251.86,494.84 L 252.79,494.84 L 252.79,494.37 L 252.79,493.45 L 253.25,493.45 L 253.25,492.98 L 254.18,492.98 L 255.1,492.06 L 255.1,491.59 L 255.1,490.67 L 255.57,490.67 L 255.57,490.21 L 256.49,490.21 L 256.49,489.28 L 256.49,488.35 L 256.96,488.35 L 256.96,487.89 L 256.96,486.96 L 257.88,486.96 L 257.88,486.5 L 258.34,485.58 L 258.34,485.11 L 259.27,485.11 L 259.27,484.19 L 259.27,483.72 L 259.27,482.8 L 259.27,481.41 L 259.73,480.95 L 259.73,480.02 L 259.73,479.09 L 259.73,478.63 L 260.66,477.71 L 260.66,476.32 L 260.66,475.85 L 260.66,474.93 L 260.66,474.46 L 260.66,473.54 L 260.66,472.15 L 260.66,471.69 L 260.66,470.76 L 261.12,469.37 L 261.12,468.45 L 261.12,467.98 L 261.12,467.06 L 261.12,465.67 L 261.12,465.21 L 261.12,463.82 L 261.12,462.89 L 261.12,461.5 L 261.12,461.04 L 261.12,460.11 L 261.12,458.72 L 260.2,457.8 L 260.2,457.34 L 260.2,456.41 L 260.2,455.95 L 260.2,455.02 L 260.2,454.56 L 259.73,454.56 L 258.81,453.63 L 258.81,453.17 L 258.81,452.24 L 258.34,452.24 L 258.34,451.78 L 257.42,451.78 L 257.42,450.85 L 256.96,450.85 L 256.96,449.93 L 256.03,449.93 L 256.03,449.46 L 255.57,449.46 L 255.57,448.54 L 253.71,448.54 L 253.25,448.08 L 252.33,448.08 L 251.86,448.08 L 250.94,448.08 L 250.47,448.08 L 249.55,448.08 L 249.08,448.08 L 248.16,448.08 L 247.7,448.08 L 246.77,448.08 L 246.77,449 L 246.31,449" fill="none" stroke="#6190e8" stroke-width="2"></path><path d="M 266.63,490.58 L 266.68,491.13 L 266.68,491.59 L 266.68,492.52 L 266.68,492.98 L 266.68,493.91 L 266.68,494.37 L 266.68,495.3 L 266.68,495.76 L 266.68,496.69 L 266.68,497.15 L 266.68,498.08 L 266.68,498.54 L 267.14,498.54 L 267.14,499.46 L 267.14,500.39 L 267.14,500.85 L 267.14,501.78 L 267.14,502.24 L 267.14,503.17 L 267.6,503.17 L 267.6,503.63 L 268.53,504.56 L 268.99,504.56 L 269.92,504.56 L 270.38,504.56 L 271.31,504.56 L 271.77,504.09 L 271.77,503.63 L 272.7,503.63 L 272.7,502.71 L 272.7,502.24 L 273.16,501.32 L 273.16,500.85 L 274.08,499.93 L 274.08,499 L 274.08,498.54 L 274.08,499.46 L 274.08,500.39 L 274.08,501.78 L 273.62,502.24 L 273.62,503.63 L 273.62,504.56 L 273.62,506.41 L 273.16,507.8 L 273.16,509.65 L 272.23,510.11 L 272.23,511.04 L 271.77,512.43 L 270.84,512.89 L 270.84,513.82 L 270.84,514.28 L 270.84,515.21 L 270.38,515.67 L 270.38,516.59 L 269.46,517.06 L 268.99,517.06 L 268.99,517.98 L 268.99,518.45 L 268.07,518.45 L 268.07,519.37 L 266.68,519.37 L 266.68,520.3 L 266.21,520.3" fill="none" stroke="#6190e8" stroke-width="2"></path><path d="M 348.11,56.32 L 348.16,55.48 L 348.16,55.02 L 348.16,54.09 L 348.16,53.63 L 348.16,52.71 L 348.16,52.24 L 349.08,51.32 L 349.08,50.85 L 350.01,50.85 L 350.47,49.93 L 350.47,49.46 L 350.47,48.54 L 351.4,47.61 L 351.86,47.61 L 351.86,47.15 L 352.79,47.15 L 352.79,46.22 L 353.25,46.22 L 353.25,45.76 L 354.18,45.76 L 354.64,44.84 L 355.57,44.84 L 356.03,44.37 L 356.96,44.37 L 357.42,44.37 L 358.34,43.45 L 359.27,43.45 L 359.73,43.45 L 360.66,43.45 L 361.12,43.45 L 362.05,43.45 L 362.51,43.45 L 363.44,43.45 L 363.44,42.98 L 363.9,42.98 L 364.83,42.98 L 365.29,43.91 L 366.21,43.91 L 366.21,44.37 L 366.21,45.3 L 366.21,45.76 L 366.21,46.69 L 366.21,47.15 L 365.75,48.08 L 365.75,49 L 365.75,49.46 L 365.75,50.39 L 365.75,50.85 L 365.29,51.78 L 365.29,52.24 L 364.36,53.17 L 364.36,53.63 L 364.36,55.02 L 363.9,55.02 L 363.9,56.41 L 362.97,57.34 L 362.97,57.8 L 362.51,58.72 L 362.51,60.11 L 361.58,61.04 L 361.58,61.5 L 361.12,62.43 L 361.12,62.89 L 360.2,62.89 L 359.73,63.82 L 358.81,65.21 L 358.81,65.67 L 357.88,66.59 L 357.42,66.59 L 356.49,67.06 L 356.49,67.98 L 356.03,68.91 L 356.03,69.37 L 355.1,69.37 L 355.1,70.3 L 354.64,70.3 L 353.71,70.3 L 353.71,70.76 L 353.71,71.69 L 353.25,71.69 L 353.25,72.15 L 353.25,73.08 L 352.33,73.54 L 352.33,74.46 L 351.86,74.46 L 351.86,74.93 L 351.86,75.85 L 350.94,76.32 L 350.94,77.24 L 351.4,77.24 L 351.4,76.78 L 351.86,76.32 L 352.79,75.39 L 352.79,74.93 L 352.79,74 L 353.25,73.54 L 354.18,72.61 L 354.64,71.22 L 355.57,70.76 L 356.03,69.37 L 356.96,68.45 L 357.42,67.52 L 358.34,66.13 L 359.27,65.67 L 359.27,64.74 L 359.73,64.28 L 360.66,63.35 L 361.12,62.89 L 362.05,61.96 L 362.05,61.5 L 363.44,61.5 L 363.9,60.58 L 364.83,60.58 L 364.83,60.11 L 365.29,60.11 L 365.29,59.19 L 366.21,59.19 L 366.21,58.26 L 366.68,58.26 L 366.68,57.8 L 366.68,56.87 L 367.6,56.87 L 367.6,56.41 L 368.07,56.41 L 368.07,55.48 L 368.07,55.95 L 368.07,56.41 L 366.68,57.34 L 366.68,57.8 L 365.75,58.72 L 365.75,60.11 L 365.29,61.04 L 365.29,61.5 L 364.36,62.43 L 364.36,62.89 L 364.36,64.28 L 363.9,65.21 L 363.9,66.59 L 363.9,67.98 L 363.9,70.3 L 363.9,71.69 L 363.9,73.54 L 363.9,74.93 L 362.97,76.32 L 362.97,78.17 L 363.44,79.56 L 363.9,80.95 L 363.9,82.34 L 363.9,83.72 L 364.83,84.19 L 365.29,85.11 L 365.29,85.58 L 366.21,86.5 L 366.21,86.96 L 366.68,87.89 L 367.6,87.89 L 367.6,88.82 L 368.07,89.28 L 368.99,89.28 L 368.99,90.21 L 369.92,90.21 L 370.38,90.21 L 371.31,90.67 L 371.77,90.67 L 372.7,90.67 L 373.16,90.67 L 373.16,91.59 L 374.08,91.59 L 374.55,91.59 L 375.47,91.59 L 375.94,91.59" fill="none" stroke="#6190e8" stroke-width="2"></path><path d="M 396.26,73.45 L 396.77,74 L 396.77,74.46 L 397.23,74.46 L 398.16,75.39 L 398.62,75.39 L 400.01,75.85 L 400.94,75.85 L 401.4,76.78 L 403.25,76.78 L 403.71,76.78 L 405.1,77.24 L 406.03,77.24 L 406.49,77.24 L 407.42,78.17 L 407.88,78.17 L 408.81,78.17 L 409.27,78.17 L 410.2,78.17 L 411.58,78.17 L 412.51,78.17 L 412.51,77.71 L 412.97,77.71" fill="none" stroke="#6190e8" stroke-width="2"></path><path d="M 398.57,72.06 L 399.55,72.15 L 400.94,72.61 L 402.33,72.61 L 403.25,72.61 L 403.71,72.61 L 404.64,72.61 L 405.1,72.61 L 406.03,72.61 L 407.42,72.61 L 407.88,72.61 L 408.81,72.61 L 409.27,72.61 L 410.2,72.61 L 410.66,72.61 L 411.58,72.61 L 412.51,72.15 L 412.97,72.15 L 414.36,72.15 L 415.29,71.69 L 416.68,71.69" fill="none" stroke="#6190e8" stroke-width="2"></path><path d="M 437.46,31.79 L 437.51,32.8 L 437.51,33.26 L 437.05,33.26 L 437.05,34.19 L 437.05,34.65 L 437.05,35.58 L 437.05,36.96 L 437.05,37.43 L 437.05,38.35 L 437.05,38.82 L 437.05,39.74 L 437.05,40.67 L 437.05,42.06 L 437.05,42.52 L 437.05,43.45 L 437.05,43.91 L 437.05,45.3 L 437.05,46.22 L 437.05,46.69 L 437.05,47.61 L 437.05,48.08 L 437.05,49 L 437.05,49.93 L 437.05,50.39 L 437.05,51.32 L 437.05,51.78 L 437.05,52.71 L 437.05,53.17 L 437.05,54.56 L 437.05,55.48 L 437.05,55.95 L 437.05,56.87 L 437.05,57.34 L 437.05,58.72 L 437.05,59.65 L 437.05,61.96 L 437.97,62.43 L 437.97,63.82 L 437.97,64.74 L 437.97,66.13 L 438.44,67.52 L 438.44,68.91 L 439.36,70.3 L 439.36,71.22 L 439.36,71.69 L 439.83,73.08 L 439.83,74 L 440.75,74.46 L 440.75,75.39 L 440.75,75.85 L 440.75,76.78 L 440.75,77.24 L 440.75,78.17 L 441.21,78.17 L 442.14,78.17 L 443.07,78.17 L 444.46,78.17 L 444.92,78.17 L 445.84,79.09 L 446.31,79.09 L 447.23,79.09 L 447.7,79.09 L 448.62,79.09 L 449.08,79.09 L 450.01,79.09 L 450.47,79.09 L 450.47,78.63 L 451.4,78.63 L 452.33,78.63 L 452.79,77.71 L 453.71,77.71 L 453.71,77.24 L 454.18,77.24 L 455.1,77.24 L 455.57,76.32 L 456.49,76.32 L 456.49,75.85 L 456.96,75.85 L 456.96,74.93 L 457.88,74.93 L 458.34,74.93 L 458.34,74.46 L 459.27,74.46 L 459.27,73.54 L 459.73,73.54 L 459.73,73.08 L 459.73,72.15 L 459.73,71.69 L 460.66,71.69 L 461.12,70.76 L 461.12,70.3 L 462.05,69.37 L 462.97,68.45 L 462.97,67.98 L 462.97,67.06 L 463.44,67.06 L 463.44,65.67 L 463.44,65.21 L 464.36,65.21 L 464.36,63.82 L 464.83,62.89 L 464.83,62.43 L 464.83,61.5 L 465.75,60.11 L 465.75,59.19 L 465.75,58.72 L 465.75,57.8 L 465.75,57.34 L 465.75,56.41 L 466.21,55.95 L 466.21,55.02 L 466.21,54.56 L 466.21,53.63 L 466.21,53.17 L 466.21,52.24 L 466.21,51.78 L 466.21,50.85 L 466.21,50.39 L 466.21,49.46 L 466.21,48.54 L 466.21,48.08 L 466.21,47.15 L 466.21,46.69 L 466.21,45.76 L 465.29,45.3 L 464.83,45.3 L 463.9,44.37 L 463.44,44.37 L 463.44,43.91 L 462.51,42.98 L 461.58,42.98 L 461.58,42.52 L 461.12,42.52 L 461.12,41.59 L 460.2,41.59 L 459.73,41.59 L 458.81,41.59 L 458.81,41.13 L 458.34,41.13 L 457.42,41.13 L 457.42,40.21 L 456.96,40.21 L 456.03,39.28 L 455.57,39.28 L 454.64,38.82 L 454.18,38.82 L 454.18,37.89 L 453.25,37.89 L 452.79,37.89 L 452.79,37.43 L 451.86,37.43 L 450.94,37.43 L 450.47,37.43 L 449.55,37.43 L 449.08,37.43 L 448.16,37.43 L 446.77,37.43 L 446.31,37.43 L 445.38,37.43 L 444.92,37.43 L 443.99,37.43 L 443.53,37.43 L 442.6,37.43 L 441.68,37.43 L 441.21,37.43 L 440.29,37.43 L 439.83,37.43 L 438.9,37.43 L 438.44,37.43 L 437.51,37.43 L 437.05,37.43" fill="none" stroke="#6190e8" stroke-width="2"></path><path d="M 467.09,86.41 L 467.14,86.04 L 468.07,86.04 L 468.07,85.11 L 468.53,85.11 L 469.46,84.65 L 469.92,83.72 L 470.84,83.72 L 470.84,83.26 L 471.31,83.26 L 471.31,82.34 L 472.23,81.87 L 472.23,80.95 L 473.16,80.95 L 473.16,80.02 L 473.62,79.56 L 474.55,78.63 L 474.55,78.17 L 475.01,78.17 L 475.01,77.24 L 475.94,76.78 L 476.4,76.78 L 476.4,75.85 L 476.4,75.39 L 477.33,75.39 L 477.33,74.46 L 477.79,74.46 L 478.71,74.46 L 479.18,74.46 L 480.1,74.46 L 480.1,74.93 L 480.57,74.93 L 480.57,75.39 L 480.57,76.32 L 480.57,76.78 L 480.57,77.71 L 480.57,78.17 L 480.57,79.09 L 480.57,79.56 L 480.57,80.48 L 480.57,81.41 L 480.57,81.87 L 480.57,82.8 L 480.57,83.26 L 480.57,84.19 L 480.57,84.65 L 479.64,84.65 L 479.64,86.04 L 479.64,86.96 L 479.18,87.43 L 479.18,88.35 L 479.18,88.82 L 478.25,89.74 L 478.25,90.67 L 478.71,90.21 L 479.18,90.21 L 480.1,89.28 L 480.57,89.28 L 481.49,88.82 L 481.96,87.89 L 482.88,87.43 L 483.81,86.5 L 484.27,86.04 L 485.2,84.65 L 485.66,83.26 L 485.66,82.34 L 486.58,81.87 L 487.05,80.02 L 487.97,78.63 L 488.44,78.17 L 488.44,76.78 L 489.36,75.39 L 489.36,74.46 L 489.83,74 L 489.83,73.08 L 489.83,73.54 L 489.83,74 L 489.83,74.93 L 490.75,75.39 L 490.75,76.32 L 490.75,76.78 L 490.75,77.71 L 490.75,78.17 L 490.75,79.09 L 490.75,79.56 L 490.75,80.48 L 490.75,81.41 L 490.75,81.87 L 490.75,82.8 L 490.75,83.26 L 490.75,84.19 L 490.75,84.65 L 490.75,85.58 L 490.75,86.04 L 490.75,86.96 L 490.29,86.96 L 490.29,87.43 L 490.29,88.35 L 490.29,88.82 L 490.75,88.82 L 490.75,89.74 L 490.75,90.67 L 492.14,90.67 L 492.14,91.13 L 493.07,91.13 L 493.53,92.06 L 494.46,92.06 L 494.92,92.06 L 495.84,92.06 L 496.31,92.06 L 497.23,92.06 L 497.7,91.59 L 498.62,91.59 L 498.62,91.13 L 498.62,90.21 L 498.62,89.28 L 499.08,89.28" fill="none" stroke="#6190e8" stroke-width="2"></path><path d="M 431.44,102.62 L 431.03,102.71 L 431.03,103.17 L 431.96,103.17 L 432.42,104.09 L 434.73,104.09 L 436.12,104.56 L 437.97,105.48 L 440.29,105.95 L 442.6,105.95 L 445.38,106.87 L 448.16,107.8 L 450.94,107.8 L 454.18,108.26 L 456.03,108.26 L 459.73,108.26 L 462.05,108.26 L 465.29,109.19 L 467.6,109.19 L 469.92,109.19 L 471.77,109.19 L 474.08,108.72 L 475.47,108.72 L 475.94,108.72 L 477.33,108.72 L 477.33,108.26 L 478.25,108.26 L 479.18,108.26 L 479.64,108.26 L 480.57,108.26 L 481.03,107.34 L 481.96,107.34" fill="none" stroke="#6190e8" stroke-width="2"></path><path d="M 442.09,124.84 L 442.14,125.39 L 442.14,125.85 L 442.6,126.78 L 442.6,127.71 L 442.6,128.17 L 442.6,129.56 L 443.53,130.48 L 443.53,130.95 L 443.53,131.87 L 443.53,132.34 L 443.53,133.26 L 443.53,133.72 L 443.53,134.65 L 443.53,135.11 L 443.99,136.04 L 443.99,136.96 L 443.99,137.43 L 443.99,138.35 L 443.99,138.82 L 443.99,139.74 L 443.99,140.21 L 443.99,141.13 L 443.99,141.59 L 443.99,142.52 L 443.99,142.98 L 443.99,143.91 L 443.99,144.37 L 443.99,145.3 L 443.99,146.22 L 443.99,147.61 L 444.92,148.08 L 444.92,149 L 444.92,149.46 L 444.92,150.39 L 444.92,150.85 L 445.38,150.85 L 445.38,151.78 L 445.38,152.24 L 445.38,153.17 L 445.38,153.63 L 445.38,154.56 L 445.38,155.02 L 445.38,155.95 L 445.38,156.87 L 445.38,157.34 L 445.38,158.26 L 446.31,158.26 L 446.77,158.26 L 447.7,158.26 L 448.16,158.26 L 449.08,158.26 L 450.01,158.26 L 450.47,158.26 L 451.4,158.26 L 451.86,158.26 L 452.79,158.26 L 453.25,158.26 L 454.18,158.26 L 454.64,158.26 L 455.57,158.26 L 456.03,158.26 L 456.96,158.26 L 456.96,157.8 L 457.42,157.8 L 458.34,157.8 L 458.81,157.8 L 459.73,157.8 L 460.66,157.8 L 461.12,157.8 L 462.05,157.8 L 462.51,157.8 L 463.9,157.34 L 464.83,157.34 L 465.29,157.34 L 466.21,156.41 L 466.68,156.41 L 467.6,156.41 L 468.99,155.48 L 469.92,155.48 L 469.92,155.02 L 470.38,155.02 L 471.31,154.09 L 471.77,154.09 L 472.7,153.63 L 473.16,152.71 L 474.08,152.24 L 474.08,151.32 L 474.55,151.32 L 474.55,150.85 L 475.47,150.85 L 475.47,149.93 L 475.94,149.93 L 475.94,149.46 L 476.86,149.46 L 476.86,148.54 L 476.86,148.08 L 477.33,147.15 L 477.33,146.69 L 478.25,146.69 L 478.25,145.76 L 478.25,144.84 L 479.18,144.37 L 479.18,143.45 L 479.18,142.98 L 479.64,142.98 L 479.64,142.06 L 479.64,141.59 L 479.64,140.67 L 480.57,140.67 L 480.57,140.21 L 480.57,139.28 L 480.57,138.82 L 480.57,137.89 L 480.57,137.43 L 480.57,136.5 L 480.1,136.5 L 480.1,135.58 L 480.1,135.11 L 479.64,134.19 L 479.64,133.72 L 478.71,132.8 L 478.71,132.34 L 477.79,132.34 L 477.79,131.41 L 477.33,131.41 L 477.33,130.95 L 477.33,130.02 L 476.4,130.02 L 475.94,130.02 L 475.94,129.56 L 475.01,129.56 L 474.55,129.56 L 473.62,128.63 L 473.16,128.63 L 473.16,128.17 L 472.23,128.17 L 471.77,128.17 L 471.77,127.24 L 470.84,127.24 L 469.46,127.24 L 468.53,127.24 L 468.53,126.32 L 468.07,126.32 L 467.14,126.32 L 467.14,125.85 L 466.68,125.85 L 465.75,125.85 L 465.29,124.93 L 464.36,124.93 L 463.9,124.93 L 462.97,124.93 L 462.51,124.93 L 461.58,124.46 L 461.12,124.46 L 460.2,124.46 L 459.27,124.46 L 458.81,124.46 L 457.88,124.46 L 456.49,124.46 L 456.03,124.46 L 455.1,124.46 L 454.64,124.46 L 453.71,124.46 L 453.25,124.46 L 451.86,124.46 L 450.94,124.46 L 450.47,124.46 L 449.55,124.46 L 448.62,124.46 L 448.16,124.46 L 447.23,124.46 L 446.77,124.46 L 445.84,124.46 L 445.38,124.46 L 444.46,124.46 L 443.99,124.46 L 443.99,125.39 L 443.07,125.39 L 442.6,125.39 L 441.68,125.39 L 441.68,125.85" fill="none" stroke="#6190e8" stroke-width="2"></path><path d="M 335.15,193.82 L 335.2,194.84 L 335.2,195.3 L 335.2,196.22 L 335.2,196.69 L 335.2,197.61 L 335.2,198.08 L 336.12,199 L 336.12,199.46 L 336.12,200.39 L 336.58,201.78 L 337.51,202.71 L 337.97,204.09 L 338.9,204.56 L 338.9,205.95 L 340.29,206.87 L 340.29,207.34 L 340.75,208.26 L 341.68,208.72 L 341.68,209.65 L 341.68,210.58 L 342.6,211.04 L 342.6,211.96 L 343.07,211.96 L 343.07,212.43 L 343.07,213.35 L 343.99,213.35 L 344.46,213.35 L 345.38,213.35 L 345.38,212.89 L 345.84,212.89 L 345.84,212.43 L 346.77,212.43 L 346.77,211.5 L 347.23,211.04 L 348.16,210.11 L 348.16,209.19 L 348.62,208.72 L 348.62,207.8 L 349.55,207.34 L 349.55,205.95 L 350.01,205.95 L 350.01,204.56 L 350.01,203.63 L 350.94,203.17 L 350.94,202.24 L 350.94,201.78 L 350.94,200.85 L 350.94,199.93 L 350.94,199.46 L 350.94,198.54 L 350.94,198.08 L 351.86,198.08 L 351.86,197.15 L 351.4,197.15 L 351.86,197.15 L 351.4,197.15 L 351.4,199 L 351.4,200.39 L 350.47,201.78 L 350.47,203.17 L 350.47,205.48 L 350.47,207.34 L 350.47,208.72 L 350.01,210.58 L 350.01,212.43 L 350.01,213.82 L 350.01,214.74 L 349.08,216.13 L 349.08,216.59 L 349.08,217.98 L 349.08,218.91 L 349.08,219.84 L 349.08,220.3 L 348.62,220.3 L 348.62,221.22 L 348.62,221.69 L 348.62,222.61 L 348.62,223.08 L 348.62,224 L 348.62,224.46 L 348.62,225.39 L 348.62,225.85 L 348.62,227.24 L 348.62,228.17 L 347.7,228.17 L 347.7,228.63" fill="none" stroke="#6190e8" stroke-width="2"></path><path d="M 372.18,222.06 L 373.16,222.15 L 373.16,221.69 L 373.62,221.69 L 374.55,221.69 L 375.01,221.69 L 375.94,221.69 L 376.4,221.69 L 377.33,221.69 L 378.25,221.69 L 378.71,221.69 L 379.64,222.61 L 380.1,222.61 L 381.03,222.61 L 381.49,222.61 L 382.42,222.61 L 382.88,222.61 L 382.88,223.08 L 383.81,223.08 L 384.27,223.08 L 385.2,224 L 385.66,224 L 386.58,224 L 387.51,224" fill="none" stroke="#6190e8" stroke-width="2"></path><path d="M 372.65,213.73 L 373.16,214.74 L 373.62,214.74 L 374.55,214.74 L 374.55,215.21 L 375.01,215.21 L 375.94,215.21 L 376.4,215.21 L 376.4,216.13 L 377.33,216.13 L 378.25,216.13 L 378.71,216.13 L 378.71,216.59 L 379.64,216.59 L 380.1,216.59 L 381.03,216.59 L 381.49,216.59 L 382.42,216.59 L 382.42,217.52 L 382.88,217.52 L 383.81,217.52 L 384.27,217.52 L 385.2,217.52 L 385.2,217.98 L 385.66,217.98" fill="none" stroke="#6190e8" stroke-width="2"></path><path d="M 406.9,188.73 L 406.96,189.74 L 406.96,190.67 L 406.03,190.67 L 406.03,191.13 L 406.03,192.06 L 406.03,192.52 L 406.03,193.45 L 406.03,193.91 L 406.03,194.84 L 406.03,195.3 L 406.03,196.22 L 406.03,196.69 L 406.03,197.61 L 406.03,199 L 406.03,199.46 L 406.03,200.39 L 406.49,201.78 L 406.49,202.71 L 406.49,203.17 L 407.42,204.56 L 407.42,205.48 L 407.42,205.95 L 407.42,206.87 L 407.42,207.34 L 407.88,207.34 L 407.88,208.26 L 407.88,208.72 L 407.88,209.65 L 407.88,210.58 L 407.88,211.04 L 408.81,211.04 L 408.81,211.96 L 408.81,212.43 L 408.81,213.35 L 409.27,213.35 L 409.27,213.82 L 409.27,214.74 L 409.27,215.21 L 410.2,215.21 L 410.2,216.13 L 410.66,216.13 L 411.58,216.13 L 412.05,216.13 L 412.97,216.13 L 413.44,216.13 L 414.36,216.13 L 414.83,216.13 L 415.75,216.13 L 416.68,216.13 L 417.14,216.13 L 418.07,215.67 L 418.53,215.67 L 419.46,215.67 L 419.46,215.21 L 419.92,215.21 L 420.84,215.21 L 420.84,214.28 L 421.31,214.28 L 422.23,214.28 L 422.7,213.82 L 423.62,213.82 L 424.08,212.89 L 425.01,212.89 L 425.01,212.43 L 425.47,212.43 L 426.4,211.5 L 426.4,211.04 L 427.33,211.04 L 427.33,210.11 L 427.79,210.11 L 427.79,209.19 L 428.71,208.72 L 428.71,207.8 L 429.18,207.8 L 429.18,207.34 L 430.1,207.34 L 430.1,206.41 L 430.1,205.95 L 430.57,205.95 L 430.57,205.02 L 430.57,204.56 L 431.49,204.56 L 431.49,203.63 L 431.49,203.17 L 431.49,202.24 L 431.49,200.85 L 431.49,199.93 L 431.96,199.46 L 431.96,198.54 L 431.96,198.08 L 431.96,197.15 L 431.96,196.69 L 431.96,195.76 L 431.96,195.3 L 431.96,194.37 L 431.96,193.91 L 431.96,192.98 L 431.96,192.52 L 431.96,191.59 L 431.96,191.13 L 431.96,190.21 L 431.03,190.21 L 431.03,189.28 L 430.57,189.28 L 429.64,188.82 L 429.18,188.82 L 428.25,188.82 L 426.86,187.89 L 425.94,187.89 L 425.47,187.89 L 424.55,187.43 L 424.08,187.43 L 423.16,187.43 L 422.7,187.43 L 421.77,187.43 L 421.77,186.5 L 421.31,186.5 L 420.38,186.5 L 419.92,186.5 L 418.99,186.5 L 418.53,186.04 L 417.6,186.04 L 417.14,186.04 L 416.21,186.04 L 415.29,186.04 L 414.83,186.04 L 413.9,186.04 L 413.44,186.04 L 412.51,186.04 L 412.05,186.96 L 411.12,186.96 L 411.12,187.43 L 410.66,187.43 L 410.66,188.35 L 409.73,188.35 L 409.73,188.82 L 409.27,188.82 L 409.27,189.74 L 408.34,189.74 L 408.34,190.67 L 407.88,191.13 L 407.88,192.06 L 406.96,192.06 L 406.96,192.52 L 406.03,192.52" fill="none" stroke="#6190e8" stroke-width="2"></path><path d="M 442.55,205.86 L 442.6,206.87 L 442.6,207.34 L 442.6,208.26 L 442.6,208.72 L 443.07,208.72 L 443.07,209.65 L 443.07,210.11 L 443.07,211.04 L 443.53,211.96 L 443.53,213.35 L 443.53,213.82 L 444.46,213.82 L 444.46,214.74 L 444.46,215.21 L 444.46,216.13 L 444.92,216.13 L 444.92,216.59 L 444.92,217.52 L 445.84,217.52 L 445.84,217.98 L 445.84,218.91 L 445.84,219.37 L 445.84,220.3 L 446.31,220.3 L 446.31,220.76 L 447.23,220.76 L 447.7,220.76 L 448.62,220.76 L 449.08,220.76 L 450.01,220.76 L 450.01,219.84 L 450.47,219.84 L 451.4,219.37 L 451.4,218.45 L 452.33,218.45 L 452.33,217.98 L 452.79,217.06 L 452.79,216.59 L 453.71,216.59 L 453.71,215.67 L 454.18,215.21 L 454.18,214.28 L 455.1,213.82 L 455.57,212.89 L 455.57,212.43 L 456.49,212.43 L 456.49,211.5 L 456.49,210.58 L 456.96,210.58 L 456.96,210.11 L 457.88,210.11 L 457.42,210.11 L 457.42,211.04 L 457.42,211.96 L 456.96,211.96 L 456.96,212.43 L 456.96,213.82 L 456.96,214.74 L 456.03,215.21 L 455.57,216.13 L 455.57,216.59 L 454.64,217.52 L 454.64,217.98 L 454.64,218.91 L 454.18,219.37 L 453.25,220.3 L 453.25,220.76 L 453.25,221.69 L 452.79,222.61 L 452.79,223.08 L 452.79,224 L 451.86,224 L 451.86,224.46 L 450.94,224.46 L 450.94,225.39 L 450.47,225.39 L 449.55,225.39 L 449.55,225.85 L 449.08,225.85 L 448.16,226.78 L 447.7,226.78 L 447.7,227.24 L 446.77,227.24 L 446.31,228.17 L 445.38,228.17 L 444.92,228.17 L 444.92,228.63 L 443.99,228.63" fill="none" stroke="#6190e8" stroke-width="2"></path><path d="M 405.05,237.34 L 405.1,237.89 L 406.03,237.89 L 406.49,237.89 L 407.42,238.82 L 408.81,238.82 L 410.2,239.28 L 412.51,239.28 L 414.36,240.21 L 416.68,240.21 L 419.46,240.21 L 422.23,240.21 L 424.55,240.67 L 428.25,241.59 L 429.64,241.59 L 435.2,241.59 L 438.44,241.59 L 440.75,242.52 L 444.46,242.52 L 448.16,242.52 L 451.86,242.52 L 453.25,242.52 L 456.96,242.52 L 458.34,242.52 L 459.73,242.52 L 460.2,242.52 L 461.58,242.06 L 462.51,242.06" fill="none" stroke="#6190e8" stroke-width="2"></path><path d="M 410.61,261.88 L 410.66,262.43 L 411.12,263.35 L 411.12,263.82 L 411.12,264.74 L 411.12,265.21 L 411.12,266.13 L 411.12,266.59 L 411.12,267.52 L 411.12,267.98 L 411.12,268.91 L 411.12,269.84 L 411.12,270.3 L 411.12,271.22 L 411.12,271.69 L 411.12,272.61 L 411.12,273.08 L 411.12,274 L 411.12,274.46 L 411.12,275.39 L 411.12,275.85 L 411.12,276.78 L 411.12,277.24 L 411.12,278.17 L 411.12,279.09 L 411.12,279.56 L 411.12,280.48 L 411.12,280.95 L 411.12,281.87 L 411.12,282.34 L 411.12,283.26 L 411.12,283.72 L 411.12,284.65 L 411.12,285.11 L 411.12,286.04 L 411.12,286.5 L 411.12,287.43 L 411.12,288.82 L 411.12,289.74 L 411.12,290.21 L 411.12,291.13 L 411.12,291.59 L 411.58,292.52 L 411.58,292.98 L 411.58,293.91 L 411.58,294.37 L 411.58,295.3 L 412.51,295.76 L 412.51,296.69 L 412.97,296.69 L 413.9,296.69 L 414.36,297.15 L 415.29,297.15 L 415.75,298.08 L 416.68,298.08 L 417.14,298.08 L 417.14,299 L 418.07,299 L 418.99,299 L 419.46,299 L 420.38,299 L 420.84,299 L 421.77,299 L 422.23,299 L 423.16,299 L 423.62,299 L 424.55,299 L 425.01,299 L 425.94,299 L 426.4,299 L 426.4,298.54 L 427.33,298.54 L 428.25,298.54 L 428.71,298.54 L 429.64,298.54 L 430.1,297.61 L 431.03,297.61 L 431.49,297.15 L 432.42,296.22 L 432.88,296.22 L 432.88,295.76 L 433.81,295.76 L 434.27,294.84 L 435.66,294.37 L 435.66,293.45 L 436.58,293.45 L 436.58,292.98 L 437.51,292.98 L 437.97,292.06 L 438.9,291.59 L 438.9,290.67 L 439.36,290.21 L 439.36,289.28 L 440.29,289.28 L 440.75,288.35 L 441.68,287.89 L 441.68,286.96 L 441.68,286.5 L 441.68,285.58 L 442.14,285.11 L 443.07,285.11 L 443.07,284.19 L 443.07,283.72 L 443.07,282.8 L 443.53,282.8 L 443.53,282.34 L 443.53,281.41 L 443.53,280.95 L 443.53,280.02 L 443.53,279.56 L 444.46,279.56 L 444.46,278.63 L 444.46,277.71 L 444.46,277.24 L 444.46,276.32 L 444.46,275.85 L 444.46,274.93 L 444.46,274.46 L 444.46,273.54 L 444.46,273.08 L 444.46,272.15 L 444.46,271.69 L 444.46,270.76 L 444.46,270.3 L 444.46,269.37 L 444.46,268.45 L 443.99,268.45 L 443.99,267.98 L 443.99,267.06 L 443.53,266.59 L 442.6,266.59 L 442.6,265.67 L 442.14,265.67 L 442.14,265.21 L 441.21,265.21 L 440.75,265.21 L 440.75,264.28 L 439.83,264.28 L 439.36,264.28 L 437.97,263.82 L 437.05,263.82 L 436.12,262.89 L 435.66,262.89 L 434.27,262.89 L 433.34,262.89 L 431.96,262.43 L 430.57,262.43 L 430.1,262.43 L 429.18,262.43 L 428.71,262.43 L 426.86,262.43 L 426.4,262.43 L 425.47,262.43 L 424.08,262.43 L 423.62,262.43 L 422.7,262.43 L 422.23,262.43 L 420.84,262.43 L 419.92,261.5 L 419.46,261.5 L 418.53,261.5 L 417.6,261.5 L 417.14,261.5 L 416.21,261.5 L 415.75,261.5 L 415.75,261.04 L 414.83,261.04 L 414.36,261.04 L 413.44,261.04" fill="none" stroke="#6190e8" stroke-width="2"></path></svg>  